<svg width="73" height="74" viewBox="0 0 73 74" fill="none" xmlns="http://www.w3.org/2000/svg">
<mask id="path-1-inside-1_465_1353" fill="white">
<path d="M62.1961 51.8702H58.9978V51.2492C60.971 50.4063 62.6506 48.9982 63.8248 47.2023C64.9991 45.4064 65.6154 43.3031 65.5962 41.1574V33.8293L71.8686 32.0128C72.1943 31.921 72.481 31.7254 72.6852 31.4556C72.8895 31.1859 73 30.8568 73 30.5184C73 30.1801 72.8895 29.851 72.6852 29.5813C72.481 29.3115 72.1943 29.1159 71.8686 29.0241L54.3944 24.1102C54.1202 24.0333 53.8302 24.0333 53.556 24.1102L47.1982 25.8956C48.1334 24.0531 48.6202 22.0156 48.6188 19.9493V11.4645L55.3027 9.37627C55.6221 9.28005 55.902 9.08351 56.101 8.81576C56.3 8.548 56.4074 8.22328 56.4074 7.88968C56.4074 7.55609 56.3 7.23137 56.101 6.96361C55.902 6.69586 55.6221 6.49932 55.3027 6.4031L47.3535 4.0199L36.9745 0.542131C36.6576 0.433303 36.3134 0.433303 35.9964 0.542131L25.6175 4.01213L17.6838 6.4031C17.3644 6.49932 17.0845 6.69586 16.8855 6.96361C16.6865 7.23137 16.5791 7.55609 16.5791 7.88968C16.5791 8.22328 16.6865 8.548 16.8855 8.81576C17.0845 9.08351 17.3644 9.28005 17.6838 9.37627L24.3676 11.4645V19.9493C24.3673 22.0106 24.854 24.0427 25.7882 25.8801L19.4848 24.1102C19.2106 24.0333 18.9206 24.0333 18.6464 24.1102L1.18772 29.0086C0.862067 29.1003 0.575311 29.296 0.371082 29.5657C0.166853 29.8355 0.05633 30.1646 0.05633 30.5029C0.05633 30.8413 0.166853 31.1703 0.371082 31.4401C0.575311 31.7098 0.862067 31.9055 1.18772 31.9973L7.44459 33.8293V41.1264C7.42537 43.272 8.04173 45.3753 9.21597 47.1712C10.3902 48.9671 12.0698 50.3753 14.043 51.2181V51.8391H10.7826C4.73535 52.3282 0 56.9316 0 62.3501V71.8673C0 72.2791 0.163574 72.674 0.454738 72.9652C0.745902 73.2563 1.14081 73.4199 1.55257 73.4199H71.4184C71.8301 73.4199 72.225 73.2563 72.5162 72.9652C72.8074 72.674 72.9709 72.2791 72.9709 71.8673V62.3501C72.9709 56.9316 68.2356 52.3282 62.1961 51.8702ZM55.652 54.3C55.6343 54.3404 55.6136 54.3793 55.5899 54.4164L55.489 54.5717V54.5173L55.3648 54.6726L55.3104 54.7269L55.194 54.8356L55.0387 54.9676L54.9533 55.0142C54.8806 55.0642 54.8025 55.1059 54.7204 55.1384L54.5031 55.2393H54.5807H54.5108L54.2469 55.3014H53.9286C53.5921 55.3032 53.2616 55.2118 52.9738 55.0375C52.9293 55.0168 52.8876 54.9908 52.8496 54.9598C52.7339 54.8811 52.6272 54.79 52.5313 54.6881L52.4382 54.5717C52.3577 54.4675 52.2875 54.3557 52.2286 54.2379C52.2098 54.2031 52.1942 54.1668 52.182 54.1292C52.1341 54.014 52.0977 53.8944 52.0733 53.7721C52.0701 53.723 52.0701 53.6737 52.0733 53.6246C52.0646 53.542 52.0646 53.4588 52.0733 53.3762V51.9556H55.8926V53.3995C55.8921 53.7155 55.8092 54.0259 55.652 54.3ZM46.7169 51.8314H45.7078C43.8683 51.9474 42.0802 52.4844 40.4812 53.401C38.8822 54.3176 37.5151 55.5893 36.4855 57.1179C35.4533 55.5936 34.0852 54.3264 32.4863 53.414C30.8875 52.5015 29.1006 51.968 27.2632 51.8547H24.0649V51.2336C26.0381 50.3908 27.7177 48.9827 28.8919 47.1868C30.0662 45.3909 30.6825 43.2875 30.6633 41.1419V33.8293L31.5172 33.5809L34.4594 37.0354L32.2159 39.6747C31.9749 39.9477 31.8375 40.2966 31.8278 40.6606V48.7573C31.8277 49.1273 31.9599 49.4852 32.2004 49.7665L35.3055 53.4073C35.4521 53.5787 35.6343 53.7161 35.8395 53.8099C36.0446 53.9038 36.2677 53.9518 36.4932 53.9506C36.7175 53.9507 36.9391 53.9021 37.1428 53.8083C37.3465 53.7145 37.5274 53.5777 37.6732 53.4073L40.7783 49.7665C41.0188 49.4852 41.151 49.1273 41.151 48.7573V40.6606C41.1491 40.2932 41.0171 39.9384 40.7783 39.6592L38.5426 37.0198L41.4848 33.5498L42.3852 33.8138V41.1264C42.366 43.272 42.9824 45.3753 44.1566 47.1712C45.3309 48.9671 47.0104 50.3753 48.9837 51.2181V51.8391L46.7169 51.8314ZM20.5949 54.5173L20.4474 54.6959C20.2986 54.8647 20.1195 55.0042 19.9195 55.1073L19.7565 55.1772C19.6948 55.2063 19.6296 55.2272 19.5624 55.2393H19.0345C18.6984 55.2379 18.3688 55.1468 18.0797 54.9753L17.9633 54.8977C17.8476 54.819 17.7409 54.7279 17.645 54.626L17.5984 54.5717L17.5441 54.5096C17.3693 54.2803 17.2474 54.0152 17.187 53.7333C17.187 53.7333 17.187 53.5936 17.187 53.5703C17.1821 53.4875 17.1821 53.4046 17.187 53.3219V51.9556H20.9597V53.4073C20.9626 53.7192 20.8851 54.0267 20.7346 54.3C20.7346 54.3 20.6803 54.4009 20.6725 54.4164C20.6369 54.4653 20.6058 54.5173 20.5794 54.5717V54.5173H20.5949ZM23.7699 37.866L23.5137 37.9126L23.2343 37.9669H23.1023L22.4192 38.0756L21.4566 38.192L20.9986 38.2386H18.6309C18.5197 38.2464 18.4082 38.2464 18.2971 38.2386H17.8701L17.0938 38.1843L16.597 38.1377L15.6422 38.0212L15.1376 37.9436H14.8581L14.3768 37.8582L13.7092 37.703L13.5384 37.7107L13.096 37.5788L12.9329 37.5322L12.4206 37.3304L11.9859 37.1673L11.8617 37.113L11.5279 36.9344H11.4269L11.1009 36.7637L10.8525 36.6239H10.7826L10.6118 36.5153V34.8074L18.6775 37.1363C18.9621 37.2138 19.2623 37.2138 19.5469 37.1363L27.5892 34.8074V36.5153H27.5349L27.465 36.5541C27.3563 36.6239 27.2321 36.7016 27.0846 36.7792C26.0386 37.3011 24.9219 37.6672 23.7699 37.866ZM62.4367 36.4531L62.2815 36.5541L62.2116 36.6006L61.9399 36.7559H61.9011L61.6139 36.9034L61.4974 36.9577L61.2102 37.0819L61.0938 37.1363L60.6357 37.3071L60.1467 37.4778L59.5489 37.6486L59.3704 37.6952L58.7183 37.8427L58.4621 37.897L58.1827 37.9436H57.9498L57.3676 38.0368L56.3972 38.1532C56.2481 38.1768 56.0978 38.1924 55.947 38.1998L55.1707 38.2541H52.803L52.0267 38.1998L51.5144 38.1532L50.6838 38.0445H50.6372L49.8609 37.9126L49.3485 37.8194C48.1716 37.596 47.0339 37.2011 45.9717 36.6472L45.6224 36.4454L45.5525 36.3988H45.5059V34.691L48.6111 35.5759L48.9449 35.6769H48.9992L53.5638 37.0587C53.8491 37.1309 54.1479 37.1309 54.4332 37.0587L62.4988 34.7298V36.4376L62.4367 36.4531ZM34.9329 41.2351L36.4855 39.4186L38.038 41.2351V48.2217L36.4855 50.0382L34.9329 48.1906V41.2351ZM36.4855 34.6056L34.7854 32.6028L36.4855 32.1137L38.17 32.6028L36.4855 34.6056ZM62.4755 41.1264C62.5053 42.7956 61.9912 44.4291 61.0109 45.7805C60.0307 47.1318 58.6375 48.1276 57.0415 48.6176C56.4158 48.7982 55.7677 48.8897 55.1163 48.8893H52.345L51.8327 48.8349H51.3591C51.2194 48.8349 51.0874 48.7806 50.9399 48.734C49.3447 48.2429 47.9522 47.2468 46.9721 45.8958C45.992 44.5447 45.4775 42.9117 45.5059 41.2428V39.9309C45.7776 40.0474 46.0571 40.156 46.3521 40.2647L46.5772 40.3346C46.8334 40.42 47.0973 40.5054 47.3535 40.583L47.6407 40.6684L48.743 40.9323L48.9604 40.9711L49.2942 41.0332L49.7367 41.1109L50.1714 41.173H50.2878L51.1728 41.2817L51.7783 41.3438L52.671 41.3981H55.3182L56.1954 41.3438L56.7698 41.2817C57.1269 41.2817 57.4685 41.204 57.7712 41.1574L58.2525 41.0953H58.7106L59.0366 41.0332L59.285 40.9867C59.5878 40.9246 59.8672 40.8547 60.1467 40.7848L60.3873 40.7227L60.9307 40.5675L61.1791 40.4898L61.676 40.3191L61.87 40.2492L62.4755 40.0085V41.1264ZM53.9364 27.2153L65.7359 30.5301L63.5468 31.1666H63.3916L53.9364 33.9069L51.1262 33.1306L49.7755 32.7425H49.6979L44.4579 31.2365H44.3182L42.1213 30.5999L43.1538 30.3127H43.2547L53.9364 27.2153ZM26.5723 6.96978L36.4855 3.64728L46.4452 6.98531L49.5504 7.92462L40.2349 10.8202L36.4855 12.0001L23.405 7.92462L26.5723 6.96978ZM36.0197 15.113C36.3229 15.2084 36.648 15.2084 36.9512 15.113L39.2801 14.3911L45.537 12.4426V14.7715L45.3118 14.9267L45.2265 14.9811L45.0634 15.0897L44.9082 15.1829L44.7917 15.1984C44.6442 15.2838 44.4735 15.377 44.2794 15.4701L43.9301 15.6331C43.499 15.8169 43.0585 15.9776 42.6104 16.1144H42.5327C42.3775 16.161 42.2222 16.2076 42.0514 16.2464L41.8651 16.293L41.4149 16.4017L41.0035 16.4948H40.887L40.4135 16.5725C40.1418 16.619 39.8701 16.6656 39.5906 16.6967L38.8143 16.7898H38.5892C38.1157 16.8286 37.6111 16.8519 37.122 16.8674H36.0663C35.5927 16.8674 35.1192 16.8674 34.6534 16.7976H34.2109L33.4347 16.7044C33.1552 16.7044 32.8757 16.6268 32.604 16.5802H32.41L31.6337 16.4327H31.5405L31.1213 16.3318L30.904 16.2775L30.5003 16.1688L30.2597 16.0912L29.9103 15.9825L29.4911 15.8272L29.1806 15.703L28.7304 15.5012L28.4897 15.3847L28.2724 15.2761L28.0705 15.1984L27.9463 15.1208L27.7678 15.0121L27.6746 14.95L27.465 14.8025V12.4737L33.0853 14.2203L36.0197 15.113ZM30.772 27.2852C29.7112 26.3838 28.8636 25.2582 28.2904 23.9897C27.7172 22.7211 27.4327 21.3411 27.4573 19.9493V18.3501L27.5504 18.389L27.9308 18.5597L28.4043 18.7461L28.839 18.9091L29.1418 19.01L29.7162 19.1885L29.9491 19.2584C30.2519 19.3438 30.5779 19.4214 30.9195 19.4991H31.0592L31.4163 19.5767H31.5793L31.9364 19.6388H32.1227C32.4333 19.6931 32.7671 19.7475 33.0388 19.7785C33.3105 19.8096 33.3959 19.8251 33.5511 19.8406H34.1721C34.6224 19.8406 35.0416 19.9027 35.4608 19.9182H37.3161C37.8052 19.9182 38.302 19.8794 38.8687 19.8329H39.3888C39.5475 19.8231 39.7055 19.805 39.8623 19.7785C40.1884 19.7785 40.5066 19.6931 40.8094 19.6388H40.9569L41.3217 19.5767H41.4459L41.9428 19.468H42.067C42.4085 19.3904 42.7268 19.305 43.0373 19.2196H43.1615L43.899 18.9867L44.0543 18.9324C44.3104 18.847 44.5511 18.7616 44.7762 18.6684L45.4438 18.3812H45.4826V19.9803C45.5069 21.3752 45.2216 22.758 44.647 24.0292C44.0725 25.3004 43.2231 26.4284 42.1601 27.3318L36.4855 28.8844L35.88 28.7213L30.772 27.2852ZM19.0501 27.2153L30.8419 30.5301L28.6372 31.1666H28.5052L24.9266 32.2767L20.0825 33.674L19.477 33.8448L19.0578 33.9613L9.60266 31.2287H9.52504L7.30486 30.5844L19.0501 27.2153ZM10.5497 41.1264V39.9309L11.163 40.1716L11.3493 40.2337C11.5123 40.2958 11.6831 40.3579 11.8617 40.4122L12.1178 40.4898L12.6612 40.6451L12.9174 40.715L13.7946 40.9246L14.0042 40.9634L14.3147 41.0177H14.7184C14.8737 41.0177 15.0367 41.0643 15.1686 41.0798C15.5024 41.1342 15.8673 41.173 16.2011 41.2118L16.8066 41.2739L17.6916 41.3282H21.2392L21.8137 41.2661C22.1785 41.2661 22.5201 41.1885 22.8151 41.1419L23.3041 41.0798H23.7544L24.0882 41.0177L24.3366 40.9711C24.7014 40.9013 25.043 40.8081 25.3846 40.7227L25.6796 40.6373C25.928 40.5675 26.1764 40.4898 26.417 40.4044L26.6732 40.3191C26.9662 40.2232 27.2538 40.1118 27.5349 39.9853V41.1264C27.5633 42.7953 27.0488 44.4282 26.0687 45.7793C25.0886 47.1304 23.6961 48.1265 22.1009 48.6176C21.4771 48.7952 20.832 48.8867 20.1835 48.8893H17.9322C17.2837 48.8867 16.6385 48.7952 16.0148 48.6176C14.4138 48.132 13.0144 47.1383 12.0283 45.7868C11.0423 44.4352 10.5233 42.7992 10.5497 41.1264ZM3.10515 62.3501C3.10515 59.0043 5.79886 56.0932 9.46293 55.2082V70.3148H3.10515V62.3501ZM12.5681 54.9365H14.2837C14.3652 55.1849 14.4664 55.4263 14.5864 55.6585C14.6118 55.7144 14.6403 55.7688 14.6718 55.8215C14.795 56.0508 14.9378 56.269 15.0988 56.4736C15.1997 56.6056 15.3084 56.7298 15.4093 56.8384C15.6273 57.0621 15.8636 57.2673 16.1157 57.4517C16.2536 57.5531 16.3989 57.6439 16.5504 57.7234C17.3065 58.1568 18.1631 58.3843 19.0345 58.3832C19.2387 58.3982 19.4437 58.3982 19.6478 58.3832C19.8411 58.3609 20.0329 58.3272 20.2223 58.2823H20.2999C20.5367 58.2221 20.7678 58.1416 20.9908 58.0417C21.1312 57.9841 21.2685 57.9193 21.4022 57.8476C21.9084 57.5773 22.3631 57.22 22.7452 56.7919C22.8475 56.6858 22.941 56.5716 23.0247 56.4503C23.0885 56.3707 23.1481 56.2878 23.2032 56.2019C23.2864 56.0855 23.3617 55.9636 23.4283 55.837C23.5629 55.5889 23.6746 55.3291 23.7621 55.0607C23.7665 55.0298 23.7665 54.9985 23.7621 54.9676H25.4311V70.3148H12.5681V54.9365ZM28.5906 55.2082C29.9411 55.4873 31.1998 56.1013 32.2511 56.9939C33.3023 57.8864 34.1124 59.0289 34.6069 60.3162C34.7995 60.9196 34.9092 61.5463 34.9329 62.1793C34.9289 62.2361 34.9289 62.2932 34.9329 62.3501V70.3148H28.5906V55.2082ZM38.038 62.2569C38.0434 61.6025 38.1508 60.953 38.3563 60.3317C38.8488 59.0388 39.6599 57.8913 40.7144 56.9956C41.7689 56.0999 43.0325 55.4851 44.3881 55.2082V70.3148H38.038V62.2569ZM47.4932 54.9365H49.2088C49.2417 55.0447 49.2805 55.151 49.3253 55.2548C49.362 55.3587 49.4061 55.4599 49.4572 55.5576C49.6023 55.8822 49.7874 56.1873 50.0084 56.4658C50.1105 56.6075 50.2248 56.74 50.3499 56.8617C50.5858 57.1096 50.8458 57.3333 51.1262 57.5293C51.2582 57.6147 51.3979 57.7079 51.4911 57.7545C52.2472 58.1878 53.1037 58.4153 53.9752 58.4143H54.3401C54.4876 58.4143 54.6273 58.4143 54.736 58.3677C54.9095 58.346 55.0809 58.3096 55.2483 58.259C55.3544 58.2373 55.4583 58.2061 55.5588 58.1659C55.6819 58.1339 55.8016 58.0896 55.9159 58.0339C56.071 57.9723 56.2215 57.8997 56.3662 57.8166L56.6456 57.6613C56.7478 57.597 56.8463 57.527 56.9406 57.4517C57.08 57.3552 57.2123 57.2488 57.3365 57.1334C57.4405 57.0464 57.539 56.9531 57.6315 56.854L57.6936 56.7841C57.7943 56.6738 57.8876 56.5572 57.9731 56.4348C58.037 56.3552 58.0966 56.2723 58.1516 56.1864C58.2349 56.07 58.3101 55.9481 58.3768 55.8215C58.5071 55.5713 58.6186 55.3119 58.7106 55.0452C58.7106 55.0452 58.7106 54.9831 58.7106 54.9443H60.3796V70.3148H47.4932V54.9365ZM69.8658 70.3148H63.5158V55.2082C67.1798 56.0932 69.8658 59.0043 69.8658 62.3501V70.3148Z"/>
</mask>
<path d="M62.1961 51.8702H58.9978V51.2492C60.971 50.4063 62.6506 48.9982 63.8248 47.2023C64.9991 45.4064 65.6154 43.3031 65.5962 41.1574V33.8293L71.8686 32.0128C72.1943 31.921 72.481 31.7254 72.6852 31.4556C72.8895 31.1859 73 30.8568 73 30.5184C73 30.1801 72.8895 29.851 72.6852 29.5813C72.481 29.3115 72.1943 29.1159 71.8686 29.0241L54.3944 24.1102C54.1202 24.0333 53.8302 24.0333 53.556 24.1102L47.1982 25.8956C48.1334 24.0531 48.6202 22.0156 48.6188 19.9493V11.4645L55.3027 9.37627C55.6221 9.28005 55.902 9.08351 56.101 8.81576C56.3 8.548 56.4074 8.22328 56.4074 7.88968C56.4074 7.55609 56.3 7.23137 56.101 6.96361C55.902 6.69586 55.6221 6.49932 55.3027 6.4031L47.3535 4.0199L36.9745 0.542131C36.6576 0.433303 36.3134 0.433303 35.9964 0.542131L25.6175 4.01213L17.6838 6.4031C17.3644 6.49932 17.0845 6.69586 16.8855 6.96361C16.6865 7.23137 16.5791 7.55609 16.5791 7.88968C16.5791 8.22328 16.6865 8.548 16.8855 8.81576C17.0845 9.08351 17.3644 9.28005 17.6838 9.37627L24.3676 11.4645V19.9493C24.3673 22.0106 24.854 24.0427 25.7882 25.8801L19.4848 24.1102C19.2106 24.0333 18.9206 24.0333 18.6464 24.1102L1.18772 29.0086C0.862067 29.1003 0.575311 29.296 0.371082 29.5657C0.166853 29.8355 0.05633 30.1646 0.05633 30.5029C0.05633 30.8413 0.166853 31.1703 0.371082 31.4401C0.575311 31.7098 0.862067 31.9055 1.18772 31.9973L7.44459 33.8293V41.1264C7.42537 43.272 8.04173 45.3753 9.21597 47.1712C10.3902 48.9671 12.0698 50.3753 14.043 51.2181V51.8391H10.7826C4.73535 52.3282 0 56.9316 0 62.3501V71.8673C0 72.2791 0.163574 72.674 0.454738 72.9652C0.745902 73.2563 1.14081 73.4199 1.55257 73.4199H71.4184C71.8301 73.4199 72.225 73.2563 72.5162 72.9652C72.8074 72.674 72.9709 72.2791 72.9709 71.8673V62.3501C72.9709 56.9316 68.2356 52.3282 62.1961 51.8702ZM55.652 54.3C55.6343 54.3404 55.6136 54.3793 55.5899 54.4164L55.489 54.5717V54.5173L55.3648 54.6726L55.3104 54.7269L55.194 54.8356L55.0387 54.9676L54.9533 55.0142C54.8806 55.0642 54.8025 55.1059 54.7204 55.1384L54.5031 55.2393H54.5807H54.5108L54.2469 55.3014H53.9286C53.5921 55.3032 53.2616 55.2118 52.9738 55.0375C52.9293 55.0168 52.8876 54.9908 52.8496 54.9598C52.7339 54.8811 52.6272 54.79 52.5313 54.6881L52.4382 54.5717C52.3577 54.4675 52.2875 54.3557 52.2286 54.2379C52.2098 54.2031 52.1942 54.1668 52.182 54.1292C52.1341 54.014 52.0977 53.8944 52.0733 53.7721C52.0701 53.723 52.0701 53.6737 52.0733 53.6246C52.0646 53.542 52.0646 53.4588 52.0733 53.3762V51.9556H55.8926V53.3995C55.8921 53.7155 55.8092 54.0259 55.652 54.3ZM46.7169 51.8314H45.7078C43.8683 51.9474 42.0802 52.4844 40.4812 53.401C38.8822 54.3176 37.5151 55.5893 36.4855 57.1179C35.4533 55.5936 34.0852 54.3264 32.4863 53.414C30.8875 52.5015 29.1006 51.968 27.2632 51.8547H24.0649V51.2336C26.0381 50.3908 27.7177 48.9827 28.8919 47.1868C30.0662 45.3909 30.6825 43.2875 30.6633 41.1419V33.8293L31.5172 33.5809L34.4594 37.0354L32.2159 39.6747C31.9749 39.9477 31.8375 40.2966 31.8278 40.6606V48.7573C31.8277 49.1273 31.9599 49.4852 32.2004 49.7665L35.3055 53.4073C35.4521 53.5787 35.6343 53.7161 35.8395 53.8099C36.0446 53.9038 36.2677 53.9518 36.4932 53.9506C36.7175 53.9507 36.9391 53.9021 37.1428 53.8083C37.3465 53.7145 37.5274 53.5777 37.6732 53.4073L40.7783 49.7665C41.0188 49.4852 41.151 49.1273 41.151 48.7573V40.6606C41.1491 40.2932 41.0171 39.9384 40.7783 39.6592L38.5426 37.0198L41.4848 33.5498L42.3852 33.8138V41.1264C42.366 43.272 42.9824 45.3753 44.1566 47.1712C45.3309 48.9671 47.0104 50.3753 48.9837 51.2181V51.8391L46.7169 51.8314ZM20.5949 54.5173L20.4474 54.6959C20.2986 54.8647 20.1195 55.0042 19.9195 55.1073L19.7565 55.1772C19.6948 55.2063 19.6296 55.2272 19.5624 55.2393H19.0345C18.6984 55.2379 18.3688 55.1468 18.0797 54.9753L17.9633 54.8977C17.8476 54.819 17.7409 54.7279 17.645 54.626L17.5984 54.5717L17.5441 54.5096C17.3693 54.2803 17.2474 54.0152 17.187 53.7333C17.187 53.7333 17.187 53.5936 17.187 53.5703C17.1821 53.4875 17.1821 53.4046 17.187 53.3219V51.9556H20.9597V53.4073C20.9626 53.7192 20.8851 54.0267 20.7346 54.3C20.7346 54.3 20.6803 54.4009 20.6725 54.4164C20.6369 54.4653 20.6058 54.5173 20.5794 54.5717V54.5173H20.5949ZM23.7699 37.866L23.5137 37.9126L23.2343 37.9669H23.1023L22.4192 38.0756L21.4566 38.192L20.9986 38.2386H18.6309C18.5197 38.2464 18.4082 38.2464 18.2971 38.2386H17.8701L17.0938 38.1843L16.597 38.1377L15.6422 38.0212L15.1376 37.9436H14.8581L14.3768 37.8582L13.7092 37.703L13.5384 37.7107L13.096 37.5788L12.9329 37.5322L12.4206 37.3304L11.9859 37.1673L11.8617 37.113L11.5279 36.9344H11.4269L11.1009 36.7637L10.8525 36.6239H10.7826L10.6118 36.5153V34.8074L18.6775 37.1363C18.9621 37.2138 19.2623 37.2138 19.5469 37.1363L27.5892 34.8074V36.5153H27.5349L27.465 36.5541C27.3563 36.6239 27.2321 36.7016 27.0846 36.7792C26.0386 37.3011 24.9219 37.6672 23.7699 37.866ZM62.4367 36.4531L62.2815 36.5541L62.2116 36.6006L61.9399 36.7559H61.9011L61.6139 36.9034L61.4974 36.9577L61.2102 37.0819L61.0938 37.1363L60.6357 37.3071L60.1467 37.4778L59.5489 37.6486L59.3704 37.6952L58.7183 37.8427L58.4621 37.897L58.1827 37.9436H57.9498L57.3676 38.0368L56.3972 38.1532C56.2481 38.1768 56.0978 38.1924 55.947 38.1998L55.1707 38.2541H52.803L52.0267 38.1998L51.5144 38.1532L50.6838 38.0445H50.6372L49.8609 37.9126L49.3485 37.8194C48.1716 37.596 47.0339 37.2011 45.9717 36.6472L45.6224 36.4454L45.5525 36.3988H45.5059V34.691L48.6111 35.5759L48.9449 35.6769H48.9992L53.5638 37.0587C53.8491 37.1309 54.1479 37.1309 54.4332 37.0587L62.4988 34.7298V36.4376L62.4367 36.4531ZM34.9329 41.2351L36.4855 39.4186L38.038 41.2351V48.2217L36.4855 50.0382L34.9329 48.1906V41.2351ZM36.4855 34.6056L34.7854 32.6028L36.4855 32.1137L38.17 32.6028L36.4855 34.6056ZM62.4755 41.1264C62.5053 42.7956 61.9912 44.4291 61.0109 45.7805C60.0307 47.1318 58.6375 48.1276 57.0415 48.6176C56.4158 48.7982 55.7677 48.8897 55.1163 48.8893H52.345L51.8327 48.8349H51.3591C51.2194 48.8349 51.0874 48.7806 50.9399 48.734C49.3447 48.2429 47.9522 47.2468 46.9721 45.8958C45.992 44.5447 45.4775 42.9117 45.5059 41.2428V39.9309C45.7776 40.0474 46.0571 40.156 46.3521 40.2647L46.5772 40.3346C46.8334 40.42 47.0973 40.5054 47.3535 40.583L47.6407 40.6684L48.743 40.9323L48.9604 40.9711L49.2942 41.0332L49.7367 41.1109L50.1714 41.173H50.2878L51.1728 41.2817L51.7783 41.3438L52.671 41.3981H55.3182L56.1954 41.3438L56.7698 41.2817C57.1269 41.2817 57.4685 41.204 57.7712 41.1574L58.2525 41.0953H58.7106L59.0366 41.0332L59.285 40.9867C59.5878 40.9246 59.8672 40.8547 60.1467 40.7848L60.3873 40.7227L60.9307 40.5675L61.1791 40.4898L61.676 40.3191L61.87 40.2492L62.4755 40.0085V41.1264ZM53.9364 27.2153L65.7359 30.5301L63.5468 31.1666H63.3916L53.9364 33.9069L51.1262 33.1306L49.7755 32.7425H49.6979L44.4579 31.2365H44.3182L42.1213 30.5999L43.1538 30.3127H43.2547L53.9364 27.2153ZM26.5723 6.96978L36.4855 3.64728L46.4452 6.98531L49.5504 7.92462L40.2349 10.8202L36.4855 12.0001L23.405 7.92462L26.5723 6.96978ZM36.0197 15.113C36.3229 15.2084 36.648 15.2084 36.9512 15.113L39.2801 14.3911L45.537 12.4426V14.7715L45.3118 14.9267L45.2265 14.9811L45.0634 15.0897L44.9082 15.1829L44.7917 15.1984C44.6442 15.2838 44.4735 15.377 44.2794 15.4701L43.9301 15.6331C43.499 15.8169 43.0585 15.9776 42.6104 16.1144H42.5327C42.3775 16.161 42.2222 16.2076 42.0514 16.2464L41.8651 16.293L41.4149 16.4017L41.0035 16.4948H40.887L40.4135 16.5725C40.1418 16.619 39.8701 16.6656 39.5906 16.6967L38.8143 16.7898H38.5892C38.1157 16.8286 37.6111 16.8519 37.122 16.8674H36.0663C35.5927 16.8674 35.1192 16.8674 34.6534 16.7976H34.2109L33.4347 16.7044C33.1552 16.7044 32.8757 16.6268 32.604 16.5802H32.41L31.6337 16.4327H31.5405L31.1213 16.3318L30.904 16.2775L30.5003 16.1688L30.2597 16.0912L29.9103 15.9825L29.4911 15.8272L29.1806 15.703L28.7304 15.5012L28.4897 15.3847L28.2724 15.2761L28.0705 15.1984L27.9463 15.1208L27.7678 15.0121L27.6746 14.95L27.465 14.8025V12.4737L33.0853 14.2203L36.0197 15.113ZM30.772 27.2852C29.7112 26.3838 28.8636 25.2582 28.2904 23.9897C27.7172 22.7211 27.4327 21.3411 27.4573 19.9493V18.3501L27.5504 18.389L27.9308 18.5597L28.4043 18.7461L28.839 18.9091L29.1418 19.01L29.7162 19.1885L29.9491 19.2584C30.2519 19.3438 30.5779 19.4214 30.9195 19.4991H31.0592L31.4163 19.5767H31.5793L31.9364 19.6388H32.1227C32.4333 19.6931 32.7671 19.7475 33.0388 19.7785C33.3105 19.8096 33.3959 19.8251 33.5511 19.8406H34.1721C34.6224 19.8406 35.0416 19.9027 35.4608 19.9182H37.3161C37.8052 19.9182 38.302 19.8794 38.8687 19.8329H39.3888C39.5475 19.8231 39.7055 19.805 39.8623 19.7785C40.1884 19.7785 40.5066 19.6931 40.8094 19.6388H40.9569L41.3217 19.5767H41.4459L41.9428 19.468H42.067C42.4085 19.3904 42.7268 19.305 43.0373 19.2196H43.1615L43.899 18.9867L44.0543 18.9324C44.3104 18.847 44.5511 18.7616 44.7762 18.6684L45.4438 18.3812H45.4826V19.9803C45.5069 21.3752 45.2216 22.758 44.647 24.0292C44.0725 25.3004 43.2231 26.4284 42.1601 27.3318L36.4855 28.8844L35.88 28.7213L30.772 27.2852ZM19.0501 27.2153L30.8419 30.5301L28.6372 31.1666H28.5052L24.9266 32.2767L20.0825 33.674L19.477 33.8448L19.0578 33.9613L9.60266 31.2287H9.52504L7.30486 30.5844L19.0501 27.2153ZM10.5497 41.1264V39.9309L11.163 40.1716L11.3493 40.2337C11.5123 40.2958 11.6831 40.3579 11.8617 40.4122L12.1178 40.4898L12.6612 40.6451L12.9174 40.715L13.7946 40.9246L14.0042 40.9634L14.3147 41.0177H14.7184C14.8737 41.0177 15.0367 41.0643 15.1686 41.0798C15.5024 41.1342 15.8673 41.173 16.2011 41.2118L16.8066 41.2739L17.6916 41.3282H21.2392L21.8137 41.2661C22.1785 41.2661 22.5201 41.1885 22.8151 41.1419L23.3041 41.0798H23.7544L24.0882 41.0177L24.3366 40.9711C24.7014 40.9013 25.043 40.8081 25.3846 40.7227L25.6796 40.6373C25.928 40.5675 26.1764 40.4898 26.417 40.4044L26.6732 40.3191C26.9662 40.2232 27.2538 40.1118 27.5349 39.9853V41.1264C27.5633 42.7953 27.0488 44.4282 26.0687 45.7793C25.0886 47.1304 23.6961 48.1265 22.1009 48.6176C21.4771 48.7952 20.832 48.8867 20.1835 48.8893H17.9322C17.2837 48.8867 16.6385 48.7952 16.0148 48.6176C14.4138 48.132 13.0144 47.1383 12.0283 45.7868C11.0423 44.4352 10.5233 42.7992 10.5497 41.1264ZM3.10515 62.3501C3.10515 59.0043 5.79886 56.0932 9.46293 55.2082V70.3148H3.10515V62.3501ZM12.5681 54.9365H14.2837C14.3652 55.1849 14.4664 55.4263 14.5864 55.6585C14.6118 55.7144 14.6403 55.7688 14.6718 55.8215C14.795 56.0508 14.9378 56.269 15.0988 56.4736C15.1997 56.6056 15.3084 56.7298 15.4093 56.8384C15.6273 57.0621 15.8636 57.2673 16.1157 57.4517C16.2536 57.5531 16.3989 57.6439 16.5504 57.7234C17.3065 58.1568 18.1631 58.3843 19.0345 58.3832C19.2387 58.3982 19.4437 58.3982 19.6478 58.3832C19.8411 58.3609 20.0329 58.3272 20.2223 58.2823H20.2999C20.5367 58.2221 20.7678 58.1416 20.9908 58.0417C21.1312 57.9841 21.2685 57.9193 21.4022 57.8476C21.9084 57.5773 22.3631 57.22 22.7452 56.7919C22.8475 56.6858 22.941 56.5716 23.0247 56.4503C23.0885 56.3707 23.1481 56.2878 23.2032 56.2019C23.2864 56.0855 23.3617 55.9636 23.4283 55.837C23.5629 55.5889 23.6746 55.3291 23.7621 55.0607C23.7665 55.0298 23.7665 54.9985 23.7621 54.9676H25.4311V70.3148H12.5681V54.9365ZM28.5906 55.2082C29.9411 55.4873 31.1998 56.1013 32.2511 56.9939C33.3023 57.8864 34.1124 59.0289 34.6069 60.3162C34.7995 60.9196 34.9092 61.5463 34.9329 62.1793C34.9289 62.2361 34.9289 62.2932 34.9329 62.3501V70.3148H28.5906V55.2082ZM38.038 62.2569C38.0434 61.6025 38.1508 60.953 38.3563 60.3317C38.8488 59.0388 39.6599 57.8913 40.7144 56.9956C41.7689 56.0999 43.0325 55.4851 44.3881 55.2082V70.3148H38.038V62.2569ZM47.4932 54.9365H49.2088C49.2417 55.0447 49.2805 55.151 49.3253 55.2548C49.362 55.3587 49.4061 55.4599 49.4572 55.5576C49.6023 55.8822 49.7874 56.1873 50.0084 56.4658C50.1105 56.6075 50.2248 56.74 50.3499 56.8617C50.5858 57.1096 50.8458 57.3333 51.1262 57.5293C51.2582 57.6147 51.3979 57.7079 51.4911 57.7545C52.2472 58.1878 53.1037 58.4153 53.9752 58.4143H54.3401C54.4876 58.4143 54.6273 58.4143 54.736 58.3677C54.9095 58.346 55.0809 58.3096 55.2483 58.259C55.3544 58.2373 55.4583 58.2061 55.5588 58.1659C55.6819 58.1339 55.8016 58.0896 55.9159 58.0339C56.071 57.9723 56.2215 57.8997 56.3662 57.8166L56.6456 57.6613C56.7478 57.597 56.8463 57.527 56.9406 57.4517C57.08 57.3552 57.2123 57.2488 57.3365 57.1334C57.4405 57.0464 57.539 56.9531 57.6315 56.854L57.6936 56.7841C57.7943 56.6738 57.8876 56.5572 57.9731 56.4348C58.037 56.3552 58.0966 56.2723 58.1516 56.1864C58.2349 56.07 58.3101 55.9481 58.3768 55.8215C58.5071 55.5713 58.6186 55.3119 58.7106 55.0452C58.7106 55.0452 58.7106 54.9831 58.7106 54.9443H60.3796V70.3148H47.4932V54.9365ZM69.8658 70.3148H63.5158V55.2082C67.1798 56.0932 69.8658 59.0043 69.8658 62.3501V70.3148Z" fill="#C84D00" stroke="#FAF5F2" stroke-width="1.2" mask="url(#path-1-inside-1_465_1353)"/>
</svg>
