<svg width="59" height="74" viewBox="0 0 59 74" fill="none" xmlns="http://www.w3.org/2000/svg">
<path d="M6.65468 11.0697C7.12348 10.7138 7.22057 10.0469 6.86498 9.57814C6.51324 9.10535 5.8464 9.01225 5.37347 9.36399C5.30489 9.41646 5.11484 9.5579 4.92492 9.69948C3.61135 10.6653 2.28552 11.6437 1.75612 13.236C1.23471 14.8123 1.69139 16.3965 2.1562 18.0091C2.43109 18.9709 2.71396 19.945 2.71396 20.822C2.71396 21.6951 2.43109 22.6692 2.1562 23.6311C1.69139 25.2438 1.23471 26.8321 1.75612 28.4043C2.28552 29.9968 3.61135 30.9747 4.92492 31.9448C5.70083 32.5147 6.46876 33.0846 6.92544 33.7069C7.38611 34.3374 7.69336 35.2468 8.00447 36.1601C8.52174 37.6918 9.03916 39.2237 10.3566 40.1897C10.963 40.6342 11.6419 40.8849 12.3694 41.0303C13.0281 41.1596 13.8325 41.2204 14.5035 41.2204H24.8499V48.7419H13.9213C13.4444 48.7419 13.0402 49.0572 12.9029 49.4896L9.1441 60.0139H3.29583C2.55613 60.0139 1.88943 60.313 1.40424 60.7979C0.919333 61.283 0.616211 61.9538 0.616211 62.6935V70.7403C0.616211 71.48 0.919333 72.1508 1.40424 72.6359C1.88929 73.1208 2.55613 73.4199 3.29583 73.4199H27.077C27.6671 73.4199 28.1481 72.943 28.1481 72.353C28.1481 71.763 27.6671 71.282 27.077 71.282H3.29597C3.00097 71.282 2.75431 71.0353 2.75431 70.7403V62.6935C2.75431 62.3985 3.00083 62.1518 3.29597 62.1518H19.2523V66.3512C19.2523 66.9413 19.7334 67.4181 20.3235 67.4181H38.6764C39.2666 67.4181 39.7475 66.9412 39.7475 66.3512V62.1518H55.704C55.999 62.1518 56.2455 62.3983 56.2455 62.6935V70.7403C56.2455 71.0353 55.999 71.282 55.704 71.282H31.9229C31.3328 71.282 30.8519 71.7629 30.8519 72.353C30.8519 72.9431 31.3328 73.4199 31.9229 73.4199H55.704C56.4437 73.4199 57.1104 73.1208 57.5956 72.6359C58.0805 72.1508 58.3836 71.48 58.3836 70.7403V62.6935C58.3836 61.9538 58.0805 61.283 57.5956 60.7979C57.1105 60.313 56.4437 60.0139 55.704 60.0139H49.8556L46.0848 49.4531C45.9273 49.0167 45.5149 48.7419 45.0785 48.7419H34.1497V41.2204H44.5772C45.2119 41.2204 46.0121 41.1516 46.6305 41.0303C47.358 40.8849 48.0368 40.6344 48.6431 40.1897C49.9607 39.2238 50.4779 37.692 50.9953 36.1561C51.0559 35.9823 51.1167 35.8085 51.1813 35.6145C51.3752 35.0608 51.0802 34.4506 50.5265 34.2567C49.9688 34.0627 49.3625 34.3577 49.1686 34.9154C49.1079 35.0892 49.0393 35.2873 48.9747 35.4813C48.5665 36.6898 48.1582 37.9023 47.3823 38.472C47.063 38.7024 46.6628 38.8439 46.2223 38.9328C45.709 39.0338 45.0986 39.0824 44.5772 39.0824H14.4228C13.8529 39.0824 13.295 39.0338 12.7777 38.9328C12.3371 38.8439 11.9371 38.7024 11.6177 38.472C10.8418 37.9023 10.4334 36.6898 10.0252 35.4813C9.66151 34.4063 9.29779 33.3352 8.64707 32.4461C8.00047 31.5648 7.09924 30.898 6.19387 30.2312C5.14706 29.4592 4.09227 28.679 3.77703 27.7376C3.46164 26.7838 3.82949 25.5107 4.20148 24.2174C4.52485 23.0938 4.85221 21.9622 4.85221 20.8221C4.85221 19.6785 4.52485 18.5467 4.20148 17.4232C3.82964 16.1299 3.46164 14.8568 3.77703 13.9071C4.09227 12.9614 5.14706 12.1813 6.19387 11.4093C6.31107 11.3243 6.42427 11.2435 6.65468 11.0697ZM33.8587 62.1518C34.4489 62.1518 34.9301 61.6709 34.9301 61.0808C34.9301 60.4907 34.4489 60.0139 33.8587 60.0139H25.1409C24.5509 60.0139 24.0697 60.4908 24.0697 61.0808C24.0697 61.6709 24.5509 62.1518 25.1409 62.1518H33.8587ZM44.5691 6.64403C44.165 6.21558 43.49 6.19548 43.0574 6.59954C42.6291 7.00361 42.6089 7.67857 43.013 8.10688C44.6093 9.80028 45.8866 11.7931 46.7556 13.9835C47.5921 16.0933 48.0488 18.3969 48.0488 20.8219C48.0488 23.243 47.5921 25.5468 46.7556 27.6565C45.8866 29.847 44.6093 31.8397 43.013 33.5331C42.6088 33.9614 42.6291 34.6364 43.0574 35.0406C43.4899 35.4448 44.165 35.4244 44.5691 34.9961C46.3395 33.1127 47.7622 30.8937 48.7362 28.4405C49.6738 26.0763 50.1911 23.5016 50.1911 20.8219C50.1911 18.1384 49.6738 15.5679 48.7362 13.1995C47.7622 10.7503 46.3395 8.52734 44.5691 6.64403ZM14.4309 34.9963C14.835 35.4246 15.5099 35.4448 15.9382 35.0407C16.3707 34.6365 16.3911 33.9616 15.9868 33.5333C14.3904 31.8399 13.1132 29.8473 12.2442 27.6566C11.4077 25.5469 10.9467 23.2433 10.9467 20.822C10.9467 18.397 11.4077 16.0934 12.2442 13.9837C13.1132 11.7932 14.3904 9.80042 15.9868 8.10702C16.3911 7.67872 16.3707 7.00375 15.9382 6.59969C15.5099 6.19548 14.835 6.21572 14.4309 6.64417C12.6605 8.52748 11.2339 10.7504 10.2638 13.1996C9.32617 15.568 8.80889 18.1385 8.80889 20.822C8.80889 23.5018 9.32617 26.0764 10.2638 28.4407C11.2339 30.8937 12.6605 33.1128 14.4309 34.9963ZM29.5061 13.7896L31.2035 16.9501C31.361 17.2372 31.5591 17.4755 31.8137 17.6615C32.0682 17.8474 32.3592 17.9686 32.6949 18.0292L36.2272 18.6718L33.7415 21.2666C33.5312 21.493 33.3534 21.7719 33.2565 22.0668C33.1595 22.3618 33.1312 22.6771 33.1758 23.0166L33.6607 26.5732L30.4233 25.0171C30.1242 24.8716 29.8132 24.7989 29.506 24.7989C29.1907 24.7989 28.8793 24.8718 28.5843 25.0171L25.3471 26.5732L25.832 23.0166C25.8805 22.661 25.8441 22.3417 25.7432 22.0386C25.6381 21.7395 25.4764 21.489 25.2661 21.2666L22.7804 18.6718L26.3128 18.0292C26.6441 17.9686 26.9351 17.8474 27.1858 17.6655C27.4404 17.4795 27.6465 17.237 27.8041 16.95L29.5061 13.7896ZM33.0828 15.9357L30.6861 11.4779C30.5365 11.199 30.3305 10.9968 30.0961 10.8676C29.91 10.7704 29.7121 10.722 29.506 10.722C29.2917 10.722 29.0936 10.7705 28.9117 10.8676C28.6733 10.9968 28.4711 11.2031 28.3216 11.4779L25.925 15.9357L20.9496 16.8369C20.2948 16.9541 19.9311 17.2855 19.8058 17.8029C19.6887 18.2919 19.8827 18.7244 20.2181 19.076L23.7181 22.7378L23.0352 27.7493C22.9583 28.3152 23.1038 28.7558 23.5 29.0589C23.9082 29.3741 24.3851 29.4065 24.9469 29.1357L29.506 26.941L34.0608 29.1357C34.3598 29.2813 34.6468 29.3296 34.9177 29.2933C35.3259 29.2408 35.6775 28.9862 35.8553 28.6142C35.9766 28.3635 36.0128 28.0767 35.9725 27.7493L35.2895 22.7378L38.7895 19.076C38.9309 18.9304 39.0402 18.7729 39.1129 18.6112C39.2463 18.3081 39.2624 18.0131 39.1655 17.7139C39.0725 17.4189 38.8826 17.1885 38.5996 17.0269C38.446 16.938 38.264 16.8734 38.0579 16.8369L33.0828 15.9357ZM27.2671 7.85252C27.8489 7.75143 28.237 7.20165 28.1399 6.61965C28.039 6.03779 27.4893 5.6457 26.9072 5.74678C23.2737 6.36514 20.0768 8.2727 17.8014 10.9768C15.5543 13.6402 14.2045 17.0755 14.2045 20.822C14.2045 25.0457 15.9183 28.869 18.6826 31.6374C21.451 34.402 25.2744 36.1156 29.498 36.1156C33.7213 36.1156 37.5489 34.4018 40.3132 31.6374C43.0817 28.869 44.7955 25.0457 44.7955 20.822C44.7955 17.0756 43.4416 13.6402 41.1984 10.9768C38.919 8.2727 35.7261 6.36514 32.0925 5.74678C31.5106 5.6457 30.961 6.03779 30.8599 6.61965C30.7628 7.20165 31.1507 7.75143 31.7327 7.85252C34.8611 8.3859 37.6134 10.0228 39.5696 12.3469C41.4974 14.6304 42.6572 17.5888 42.6572 20.8219C42.6572 24.4555 41.1821 27.7412 38.8016 30.1218C36.4211 32.5066 33.1312 33.9777 29.4978 33.9777C25.8644 33.9777 22.5785 32.5066 20.1979 30.1218C17.8133 27.7413 16.3422 24.4556 16.3422 20.8219C16.3422 17.5886 17.5022 14.6303 19.43 12.3469C21.3864 10.0228 24.1388 8.3859 27.2671 7.85252ZM19.2523 60.0139H11.4156L14.6733 50.8797C24.5592 50.8797 34.4409 50.8797 44.3227 50.8797L47.5843 60.0137H39.7475V55.8145C39.7475 55.2244 39.2666 54.7435 38.6764 54.7435H20.3234C19.7332 54.7435 19.2522 55.2244 19.2522 55.8145L19.2523 60.0139ZM21.3904 56.8817H37.6095V65.2801H21.3904V56.8817ZM26.9882 41.2202H32.0118V48.7418H26.9882V41.2202ZM52.3453 30.5745C51.8765 30.9262 51.7794 31.5931 52.131 32.062C52.4867 32.5348 53.1535 32.6319 53.6223 32.2762C53.6952 32.2237 53.8851 32.0822 54.075 31.9448C55.3886 30.9747 56.7103 29.9968 57.2438 28.4043C57.7652 26.8322 57.3084 25.2438 56.8436 23.6311C56.5649 22.6692 56.286 21.6951 56.286 20.822C56.286 19.9451 56.5649 18.971 56.8436 18.0091C57.3084 16.3965 57.7652 14.8122 57.2438 13.236C56.7104 11.6437 55.3886 10.6654 54.075 9.69948C53.2991 9.1256 52.5312 8.55571 52.0745 7.93322C51.6138 7.30673 51.3066 6.39338 50.9955 5.48401C50.4781 3.9523 49.9608 2.41644 48.6432 1.45048C48.037 1.00592 47.358 0.755408 46.6306 0.613971C45.992 0.484652 45.1796 0.419922 44.5328 0.419922H14.4228C13.788 0.419922 12.9879 0.488645 12.3695 0.613971C11.6419 0.755408 10.9631 1.00592 10.3567 1.45048C9.0393 2.41644 8.52188 3.9523 8.00461 5.48401C7.94402 5.65781 7.88328 5.83561 7.81869 6.02567C7.62464 6.5793 7.91564 7.18953 8.47341 7.38344C9.03117 7.57749 9.63741 7.28249 9.83132 6.72872C9.89192 6.55092 9.95665 6.35702 10.0252 6.15898C10.4334 4.95048 10.8418 3.738 11.6177 3.17225C11.9369 2.93771 12.3371 2.79627 12.7777 2.7073C13.291 2.60636 13.9014 2.55774 14.4228 2.55774H44.5772C45.1471 2.57813 45.705 2.60636 46.2223 2.7073C46.6628 2.79627 47.0629 2.93771 47.3823 3.17225C48.1582 3.738 48.5665 4.95048 48.9747 6.15898C49.3384 7.23387 49.7022 8.30506 50.3529 9.19404C50.9995 10.0752 51.9007 10.742 52.8061 11.409C53.8529 12.181 54.9077 12.9611 55.2189 13.9068C55.5383 14.8565 55.1705 16.1296 54.7986 17.4229C54.4752 18.5464 54.148 19.6781 54.148 20.8219C54.148 21.9618 54.4754 23.0936 54.7986 24.2171C55.1705 25.5104 55.5383 26.7835 55.2189 27.7373C54.9077 28.6789 53.8529 29.459 52.8061 30.2309C52.6889 30.3158 52.5757 30.4007 52.3453 30.5745Z" fill="#C84D00"/>
</svg>
