<svg width="242" height="220" viewBox="0 0 242 220" fill="none" xmlns="http://www.w3.org/2000/svg">
<path fill-rule="evenodd" clip-rule="evenodd" d="M1.23958 0L0 1.56954L114.802 92.237C108.404 97.2177 98.9456 105.011 90.1278 113.17C80.87 121.736 72.1917 130.818 68.5963 137.501L68.2064 138.225L68.8425 138.747C83.3953 150.692 109.461 169.053 140.419 185.372C171.367 201.687 207.28 216.001 241.51 219.779L241.729 217.791C207.854 214.052 172.196 199.863 141.351 183.603C110.97 167.587 85.3291 149.601 70.7586 137.731C74.4005 131.442 82.5494 122.907 91.4861 114.638C100.73 106.085 110.691 97.9289 117.036 93.0365L118.05 92.254L1.23958 0Z" fill="#C84D00" fill-opacity="0.09"/>
</svg>
