<svg width="86" height="86" viewBox="0 0 86 86" fill="none" xmlns="http://www.w3.org/2000/svg">
<path d="M65.1593 85.0657C48.0679 85.0219 31.6888 78.2137 19.6021 66.1291C7.51526 54.0444 0.703732 37.6662 0.65625 20.5742C0.690409 15.2353 2.82515 10.1245 6.59859 6.34759C10.372 2.5707 15.4807 0.431406 20.8194 0.392578C24.3667 0.403263 27.8479 1.35241 30.9098 3.14365C31.8918 3.71152 32.8166 4.37298 33.6713 5.11878C34.2847 5.66169 34.69 6.40117 34.8176 7.2103L38.2633 28.9932C38.3948 29.8227 38.226 30.6719 37.7872 31.388C36.6581 33.2149 35.227 34.8369 33.555 36.1847C36.9745 43.136 42.5984 48.7601 49.5493 52.1798C50.896 50.5079 52.5167 49.0767 54.3424 47.9473C55.0569 47.5011 55.9095 47.3306 56.7406 47.4677L78.5226 50.9171C79.3312 51.0432 80.07 51.4488 80.6105 52.0634C81.3462 52.9069 82.0015 53.8173 82.568 54.7827C84.3671 57.8413 85.3246 61.3216 85.3433 64.8701C85.3619 68.4185 84.4411 71.9087 82.6743 74.9861C80.9075 78.0634 78.3577 80.6183 75.2838 82.3911C72.21 84.164 68.7218 85.0916 65.1734 85.0798L65.1593 85.0657ZM20.8406 7.44661C17.3655 7.4743 14.0407 8.8676 11.584 11.3257C9.12728 13.7838 7.73582 17.1095 7.71 20.5847C7.75468 35.804 13.821 50.3869 24.5836 61.1473C35.3462 71.9077 49.93 77.9707 65.1487 78.0116C68.6231 77.9839 71.9472 76.5904 74.4028 74.1321C76.8583 71.6738 78.2482 68.3481 78.2722 64.8735C78.2681 62.5793 77.6481 60.3283 76.477 58.3556C76.3337 58.1167 76.1843 57.8815 76.0291 57.6502L57.0157 54.6416C55.723 55.6687 54.6364 56.9313 53.8133 58.3626C53.3873 59.09 52.7148 59.6408 51.9177 59.9151C51.1206 60.1895 50.2517 60.1692 49.4682 59.8581C44.1312 57.7408 39.2834 54.5545 35.2228 50.4949C31.1622 46.4354 27.9746 41.5884 25.8558 36.2518C25.5456 35.4687 25.5259 34.6005 25.8001 33.8042C26.0744 33.0078 26.6246 32.3359 27.3512 31.91C28.7817 31.0844 30.044 29.9967 31.072 28.7039L28.0707 9.68979C27.8281 9.52564 27.5811 9.36804 27.33 9.21717C25.3624 8.0613 23.1225 7.45018 20.8406 7.44661Z" fill="#F5E5DC"/>
</svg>
