<svg width="23" height="22" viewBox="0 0 23 22" fill="none" xmlns="http://www.w3.org/2000/svg">
<path d="M3.3242 0.878418C1.71098 0.878418 0.65625 1.93772 0.65625 3.33004C0.65625 4.69164 1.67959 5.78115 3.26232 5.78115H3.29292C4.93769 5.78115 5.96128 4.69164 5.96128 3.33004C5.93054 1.93772 4.93769 0.878418 3.3242 0.878418ZM0.935031 7.71839H5.65111V21.9069H0.934997L0.935031 7.71839ZM17.2269 7.38537C14.6827 7.38537 12.9768 9.77604 12.9768 9.77604V7.71836H8.26052V21.9069H12.9765V13.9835C12.9765 13.5593 13.0072 13.1358 13.1318 12.8325C13.4728 11.9855 14.2486 11.1079 15.5515 11.1079C17.258 11.1079 17.9405 12.4091 17.9405 14.3165V21.9069H22.6562V13.7715C22.6562 9.41339 20.3295 7.38537 17.2269 7.38537Z" fill="#C84D00"/>
</svg>
