<svg width="202" height="184" viewBox="0 0 202 184" fill="none" xmlns="http://www.w3.org/2000/svg">
<path fill-rule="evenodd" clip-rule="evenodd" d="M200.49 0L201.73 1.56893L106.147 77.1337C111.482 81.299 119.288 87.7443 126.571 94.4895C134.29 101.639 141.549 109.239 144.562 114.845L144.951 115.57L144.316 116.092C132.17 126.07 110.422 141.405 84.5919 155.035C58.7712 168.66 28.7981 180.621 0.219636 183.778L0 181.791C28.2236 178.672 57.9414 166.837 83.6585 153.266C108.911 139.941 130.235 124.981 142.398 115.077C139.342 109.863 132.61 102.809 125.212 95.9568C117.507 88.8202 109.203 82.0145 103.914 77.9324L102.901 77.1502L200.49 0Z" fill="#C84D00" fill-opacity="0.09"/>
</svg>
