<svg width="78" height="76" viewBox="0 0 78 76" fill="none" xmlns="http://www.w3.org/2000/svg">
<mask id="path-1-inside-1_465_1396" fill="white">
<path d="M59.9811 53.6467C60.4312 53.906 60.7528 54.3249 60.8877 54.8281C61.0225 55.33 60.9538 55.8539 60.6931 56.304C60.1575 57.2325 58.967 57.5529 58.0358 57.0159L45.1203 49.5589C44.4978 49.201 43.7067 49.4137 43.3487 50.0336C42.9908 50.6535 43.2035 51.4472 43.8234 51.8051L54.4928 57.9653L54.4967 57.9666C55.4226 58.5048 55.7391 59.694 55.2035 60.6213C54.6678 61.5511 53.4747 61.8715 52.5462 61.3332L41.8768 55.1731C41.2556 54.8152 40.4632 55.0278 40.1052 55.6477C39.7473 56.2689 39.96 57.0613 40.5799 57.4193L50.1249 62.931L50.1275 62.9323C50.5762 63.193 50.8978 63.6106 51.0327 64.1124C51.1676 64.6143 51.0988 65.1383 50.8382 65.5883C50.5788 66.0383 50.1599 66.3599 49.6567 66.4948C49.1548 66.6297 48.6296 66.561 48.1809 66.3016L38.6346 60.7899C38.0134 60.4306 37.221 60.6446 36.863 61.2645C36.5051 61.8844 36.7178 62.6781 37.3377 63.036L45.7609 67.8993C46.6895 68.4349 47.0085 69.6281 46.4729 70.5566C45.9373 71.4852 44.7442 71.8055 43.8156 71.2686L40.493 69.3505C40.362 67.9317 39.5761 66.5921 38.2507 65.8269C37.3987 65.3354 36.4532 65.1629 35.5415 65.255C35.5299 64.9087 35.4922 64.5625 35.4002 64.2188C35.0863 63.0477 34.3354 62.0686 33.285 61.4629C32.4511 60.9818 31.5095 60.7937 30.5706 60.8884C30.5213 59.3711 29.7263 57.9108 28.3179 57.0977C26.9095 56.2845 25.2482 56.3273 23.9086 57.0432C23.5208 56.1834 22.8866 55.461 22.054 54.9799C21.0036 54.3742 19.7819 54.2134 18.6095 54.526C17.8366 54.7335 17.1596 55.1472 16.6059 55.6957L10.1461 53.15L11.6077 47.2959C11.7815 46.6007 11.3587 45.8965 10.6636 45.7241C9.97753 45.549 9.26425 45.9718 9.09177 46.6682L6.82353 55.7528L1.55174 54.6971C0.847535 54.5571 0.165379 55.0123 0.0253166 55.7139C-0.114746 56.4168 0.340457 57.0989 1.04207 57.2403L7.52644 58.5372C7.61333 58.554 7.69893 58.5618 7.78322 58.5618C8.36682 58.5618 8.89335 58.1663 9.03989 57.5788L9.51196 55.6867L15.1261 57.8978L13.9071 60.0078C13.3014 61.0583 13.1406 62.2813 13.4532 63.4523C13.767 64.6234 14.5179 65.6026 15.5684 66.2082C16.2816 66.6193 17.0611 66.8151 17.8301 66.8151C17.9805 66.8151 18.1297 66.8009 18.2788 66.7866C18.2905 67.1316 18.3294 67.4765 18.4202 67.8176C18.734 68.9887 19.4849 69.9678 20.5354 70.5735C21.2474 70.9846 22.0268 71.1804 22.7971 71.1804C23.548 71.1804 24.286 70.9885 24.9474 70.6357C25.3351 71.493 25.968 72.2127 26.7993 72.6926C27.5126 73.1037 28.292 73.2995 29.061 73.2995C29.8119 73.2995 30.5499 73.1089 31.2113 72.7548C31.599 73.6121 32.2319 74.3305 33.0632 74.8104C33.7635 75.2137 34.539 75.4199 35.3263 75.4199C35.7205 75.4199 36.1173 75.368 36.5077 75.263C37.6788 74.9491 38.6579 74.1982 39.2636 73.1478L39.912 72.0247C39.9146 72.0208 39.9159 72.0156 39.9185 72.0117L42.5187 73.5122C43.232 73.9233 44.0101 74.1191 44.7805 74.1191C46.3497 74.1191 47.88 73.3047 48.7191 71.8496C49.208 71.0014 49.3922 70.0586 49.3053 69.1508C49.6463 69.1391 49.99 69.0873 50.3285 68.9965C51.4996 68.6826 52.4787 67.9317 53.0844 66.8813C53.5746 66.0318 53.7587 65.089 53.6705 64.1799C55.184 64.1267 56.6391 63.3188 57.4509 61.9142C57.8426 61.236 58.0384 60.4981 58.0566 59.764C59.9306 60.1674 61.9303 59.3412 62.9393 57.5957C63.545 56.5452 63.7058 55.3222 63.3932 54.1512C63.3258 53.8983 63.2272 53.6583 63.1209 53.4249L68.2085 52.7129L68.7752 54.9799C68.9205 55.5725 69.447 55.9681 70.0306 55.9681C70.1149 55.9681 70.2005 55.9603 70.2861 55.9421L76.7705 54.6453C77.4734 54.5052 77.9286 53.8217 77.7872 53.1188C77.6472 52.4159 76.9676 51.9633 76.2608 52.1021L70.989 53.1565L65.1051 29.6195L76.8872 26.0842C77.5732 25.878 77.9636 25.1556 77.7574 24.4696C77.5512 23.7835 76.8275 23.3971 76.1428 23.5994L68.2137 25.9778C67.1554 23.1675 64.5487 21.217 61.5037 21.0004C62.7694 19.618 63.5475 17.7829 63.5475 15.765C63.5475 15.0491 62.9665 14.4681 62.2507 14.4681C61.5348 14.4681 60.9538 15.0491 60.9538 15.765C60.9538 18.6259 58.6272 20.9525 55.7663 20.9525C52.9054 20.9525 50.5788 18.6259 50.5788 15.765V11.1675C52.55 9.46344 55.2929 9.00694 57.7181 10.0457L61.7397 11.7693C62.1404 11.9418 62.6008 11.9003 62.964 11.6603C63.3284 11.4204 63.5475 11.0132 63.5475 10.5775V9.57756C63.5475 5.83867 60.5051 2.7962 56.7662 2.7962C56.2695 2.7962 55.7832 2.70283 55.3215 2.51737L49.7644 0.29453C49.1341 0.0429358 48.4234 0.316576 48.1225 0.918326L47.6193 1.9234C46.1876 4.7882 46.3471 8.18861 47.9851 10.9159V15.765C47.9851 17.7842 48.7645 19.6206 50.0302 21.0043C49.6204 21.0355 49.2106 21.0951 48.8021 21.195C47.487 19.6011 45.5495 18.5455 43.3669 18.3859C44.621 17.0061 45.3913 15.1788 45.3913 13.1712V6.68683C45.3913 3.11134 42.4824 0.202451 38.9069 0.202451H31.1257C30.4098 0.202451 29.8288 0.783451 29.8288 1.49933V6.68683C29.8288 7.4027 30.4098 7.9837 31.1257 7.9837H42.7976V13.1712C42.7976 16.0321 40.471 18.3587 37.61 18.3587C34.7491 18.3587 32.4225 16.0321 32.4225 13.1712V11.8743C32.4225 11.1585 31.8415 10.5775 31.1257 10.5775C30.4098 10.5775 29.8288 11.1585 29.8288 11.8743V13.1712C29.8288 15.1788 30.5991 17.0061 31.8532 18.3872C29.5292 18.5571 27.4905 19.749 26.1781 21.5179C25.4441 21.2248 24.6802 21.051 23.906 20.9914C25.1639 19.6089 25.9382 17.7777 25.9382 15.765V9.28058C25.9382 5.70509 23.0293 2.7962 19.4538 2.7962H16.86C13.2846 2.7962 10.3757 5.70509 10.3757 9.28058V15.765C10.3757 17.7725 11.146 19.5998 12.4001 20.981C8.85963 21.2391 5.97278 23.8704 5.32824 27.2916L1.67105 26.1944C0.987598 25.9908 0.263941 26.3786 0.0564415 27.0646C-0.149762 27.7507 0.240598 28.473 0.926645 28.6792L12.7088 32.2145L10.3497 41.6208C10.176 42.3159 10.5974 43.0201 11.2926 43.1939C11.3989 43.2198 11.5053 43.2328 11.609 43.2328C12.19 43.2328 12.7178 42.8398 12.8657 42.251L14.5335 35.5942L18.4513 36.7562C20.8843 37.4759 23.4741 37.5421 25.9408 36.9455L28.0287 36.4397C29.0066 36.2011 30.0207 36.3502 30.8896 36.8521L33.1734 38.1711C31.0064 39.8583 28.6097 41.1733 26.003 42.0422C24.8708 42.4222 23.9864 43.2807 23.5753 44.3948C23.1667 45.5036 23.2809 46.7227 23.893 47.742C24.9733 49.5304 26.8447 50.5199 28.7796 50.5199C29.7471 50.5199 30.7301 50.2722 31.6379 49.7547L36.413 47.0287L36.9058 47.2245C40.4243 48.6355 44.4096 48.3788 47.7179 46.5618L51.2376 48.5953C51.8562 48.9533 52.6512 48.7406 53.0091 48.122C53.3671 47.5008 53.1557 46.7084 52.5358 46.3504L48.3598 43.9383C47.941 43.6945 47.4222 43.7087 47.0163 43.9655C44.2838 45.6994 40.8665 46.0172 37.8668 44.815L36.7904 44.387C36.4234 44.2417 36.011 44.2716 35.6686 44.4661L30.3501 47.5008C28.8613 48.3502 26.999 47.8691 26.1133 46.4036C25.8357 45.9406 25.9278 45.5088 26.0082 45.2922C26.1457 44.9174 26.4453 44.6295 26.8252 44.5011C30.0998 43.4091 33.0995 41.7128 35.7412 39.4563L38.3998 37.1738C39.7214 36.039 41.5175 35.6473 43.2048 36.1272C47.1784 37.2581 51.379 37.2607 55.3552 36.1272L63.4775 33.811L67.5717 50.1879L60.8228 51.1333L57.0204 48.9442C56.4005 48.5889 55.6068 48.8015 55.2488 49.4214C54.8922 50.0427 55.1049 50.835 55.7261 51.193L59.9811 53.6467ZM16.8665 63.9633C15.938 63.4264 15.6189 62.2346 16.1545 61.306L18.0999 57.9367C18.4591 57.3142 19.1153 56.9641 19.7871 56.9641C20.1165 56.9641 20.4511 57.0471 20.7572 57.2248C21.6857 57.7604 22.0048 58.9522 21.4691 59.8807L19.5225 63.2526C18.9856 64.1812 17.7964 64.5002 16.8665 63.9633ZM24.3638 60.0545C24.723 59.432 25.3792 59.0819 26.051 59.0819C26.3804 59.0819 26.715 59.1649 27.0211 59.3425C27.9496 59.8795 28.2687 61.0713 27.733 61.9998L24.4909 67.6153C23.9553 68.5439 22.7634 68.8642 21.8336 68.3273C21.3835 68.0679 21.0619 67.649 20.9283 67.1458C20.7935 66.644 20.8622 66.12 21.1229 65.67L24.3638 60.0545ZM30.7548 69.7357C30.2192 70.6656 29.0286 70.9846 28.0975 70.4477C27.1689 69.9108 26.8499 68.7189 27.3855 67.7904L29.3308 64.4211C29.69 63.7986 30.3463 63.4485 31.018 63.4485C31.3474 63.4485 31.682 63.5315 31.9881 63.7091C32.9167 64.246 33.2357 65.4379 32.7001 66.3664L30.7548 69.7357ZM34.2978 68.7864C34.6571 68.1626 35.3133 67.8137 35.9864 67.8137C36.3158 67.8137 36.6504 67.8967 36.9551 68.0744C37.8837 68.6113 38.204 69.8031 37.6671 70.7317L37.0187 71.8548C36.4831 72.7834 35.2925 73.1037 34.3614 72.5668C33.4341 72.0312 33.1151 70.8432 33.6468 69.916L34.2978 68.7864ZM57.8582 23.5462L57.2992 25.2205L55.7663 25.9869L54.2334 25.2205L53.6744 23.5462H57.8582ZM49.9083 3.14636L54.3579 4.92697C55.1269 5.23433 55.9375 5.38995 56.7662 5.38995C58.7232 5.38995 60.3715 6.74 60.828 8.55692L58.7413 7.66337C55.7157 6.3665 52.3192 6.7374 49.6866 8.55822C49.0122 6.8217 49.077 4.85434 49.9083 3.14636ZM50.5788 23.5462H50.9406L51.9418 26.5498C52.0508 26.8753 52.2842 27.145 52.5915 27.2994L54.4694 28.2383V33.6774C53.192 34.0288 51.8886 34.2506 50.5788 34.3388V26.14C50.5788 25.2451 50.4193 24.3892 50.1405 23.589C50.287 23.576 50.4335 23.5462 50.5788 23.5462ZM32.4225 5.38995V2.7962H38.9069C40.598 2.7962 42.0402 3.88039 42.5758 5.38995H32.4225ZM38.9069 20.8357V22.7447L37.61 23.3932L36.3132 22.7447V20.8357C36.736 20.9071 37.1678 20.9525 37.61 20.9525C38.0523 20.9525 38.4841 20.9071 38.9069 20.8357ZM19.4538 25.3385L18.1569 25.9869L16.86 25.3385V23.5462H19.4538V25.3385ZM12.9694 15.765V10.5775H23.3444V15.765C23.3444 18.6259 21.0178 20.9525 18.1569 20.9525C15.296 20.9525 12.9694 18.6259 12.9694 15.765ZM16.86 5.38995H19.4538C21.1449 5.38995 22.587 6.47414 23.1227 7.9837H13.1925C13.7268 6.47414 15.1689 5.38995 16.86 5.38995ZM7.85066 28.049C8.19044 25.5149 10.3433 23.5462 12.9694 23.5462H14.2663V26.14C14.2663 26.6315 14.5438 27.0802 14.9835 27.3007L15.296 27.4563L15.0133 30.2822C14.9005 30.2018 14.7799 30.1278 14.6398 30.085L7.85066 28.049ZM17.2776 33.702L17.7834 28.6455C17.9066 28.6831 18.0285 28.7337 18.1569 28.7337C18.2853 28.7337 18.4072 28.6831 18.5304 28.6455L19.0894 34.2389L17.2776 33.702ZM21.7441 34.7058L21.0191 27.4563L21.3317 27.3007C21.77 27.0802 22.0475 26.6315 22.0475 26.14V23.5462H23.3444C23.9073 23.5462 24.4558 23.6512 24.9889 23.8393C24.7632 24.5668 24.6413 25.3385 24.6413 26.14V34.5437C23.6829 34.7162 22.7115 34.772 21.7441 34.7058ZM27.4218 33.9186L27.235 33.964V26.14C27.235 23.279 29.5616 20.9525 32.4225 20.9525H33.7194V23.5462C33.7194 24.0377 33.997 24.4864 34.4366 24.7069L34.7206 24.8483L33.7285 33.7785C33.6948 34.082 33.7687 34.3868 33.9386 34.641L34.9955 36.227L32.1891 34.6073C30.7392 33.7695 29.0455 33.5257 27.4218 33.9186ZM37.1912 34.8459L36.3573 33.5957L37.1963 26.0427C37.3325 26.0894 37.4687 26.14 37.61 26.14C37.7514 26.14 37.8876 26.0894 38.0238 26.0427L38.8965 33.8979C38.2948 34.1378 37.7242 34.4555 37.1912 34.8459ZM41.4449 33.3545L40.4995 24.8483L40.7835 24.7069C41.2231 24.4864 41.5007 24.0377 41.5007 23.5462V20.9525H42.7976C45.6585 20.9525 47.9851 23.279 47.9851 26.14V34.3388C46.6143 34.248 45.2512 34.0146 43.9168 33.6346C43.101 33.4012 42.2671 33.3195 41.4449 33.3545ZM57.0632 32.9447V28.2383L58.9397 27.2994C59.2471 27.145 59.4805 26.8753 59.5895 26.5498L60.592 23.5462H60.9538C63.0755 23.5462 64.9196 24.8379 65.7107 26.73L63.1753 27.4913C62.5113 27.691 62.1223 28.3758 62.2896 29.0488L62.8511 31.295L57.0632 32.9447Z"/>
</mask>
<path d="M59.9811 53.6467C60.4312 53.906 60.7528 54.3249 60.8877 54.8281C61.0225 55.33 60.9538 55.8539 60.6931 56.304C60.1575 57.2325 58.967 57.5529 58.0358 57.0159L45.1203 49.5589C44.4978 49.201 43.7067 49.4137 43.3487 50.0336C42.9908 50.6535 43.2035 51.4472 43.8234 51.8051L54.4928 57.9653L54.4967 57.9666C55.4226 58.5048 55.7391 59.694 55.2035 60.6213C54.6678 61.5511 53.4747 61.8715 52.5462 61.3332L41.8768 55.1731C41.2556 54.8152 40.4632 55.0278 40.1052 55.6477C39.7473 56.2689 39.96 57.0613 40.5799 57.4193L50.1249 62.931L50.1275 62.9323C50.5762 63.193 50.8978 63.6106 51.0327 64.1124C51.1676 64.6143 51.0988 65.1383 50.8382 65.5883C50.5788 66.0383 50.1599 66.3599 49.6567 66.4948C49.1548 66.6297 48.6296 66.561 48.1809 66.3016L38.6346 60.7899C38.0134 60.4306 37.221 60.6446 36.863 61.2645C36.5051 61.8844 36.7178 62.6781 37.3377 63.036L45.7609 67.8993C46.6895 68.4349 47.0085 69.6281 46.4729 70.5566C45.9373 71.4852 44.7442 71.8055 43.8156 71.2686L40.493 69.3505C40.362 67.9317 39.5761 66.5921 38.2507 65.8269C37.3987 65.3354 36.4532 65.1629 35.5415 65.255C35.5299 64.9087 35.4922 64.5625 35.4002 64.2188C35.0863 63.0477 34.3354 62.0686 33.285 61.4629C32.4511 60.9818 31.5095 60.7937 30.5706 60.8884C30.5213 59.3711 29.7263 57.9108 28.3179 57.0977C26.9095 56.2845 25.2482 56.3273 23.9086 57.0432C23.5208 56.1834 22.8866 55.461 22.054 54.9799C21.0036 54.3742 19.7819 54.2134 18.6095 54.526C17.8366 54.7335 17.1596 55.1472 16.6059 55.6957L10.1461 53.15L11.6077 47.2959C11.7815 46.6007 11.3587 45.8965 10.6636 45.7241C9.97753 45.549 9.26425 45.9718 9.09177 46.6682L6.82353 55.7528L1.55174 54.6971C0.847535 54.5571 0.165379 55.0123 0.0253166 55.7139C-0.114746 56.4168 0.340457 57.0989 1.04207 57.2403L7.52644 58.5372C7.61333 58.554 7.69893 58.5618 7.78322 58.5618C8.36682 58.5618 8.89335 58.1663 9.03989 57.5788L9.51196 55.6867L15.1261 57.8978L13.9071 60.0078C13.3014 61.0583 13.1406 62.2813 13.4532 63.4523C13.767 64.6234 14.5179 65.6026 15.5684 66.2082C16.2816 66.6193 17.0611 66.8151 17.8301 66.8151C17.9805 66.8151 18.1297 66.8009 18.2788 66.7866C18.2905 67.1316 18.3294 67.4765 18.4202 67.8176C18.734 68.9887 19.4849 69.9678 20.5354 70.5735C21.2474 70.9846 22.0268 71.1804 22.7971 71.1804C23.548 71.1804 24.286 70.9885 24.9474 70.6357C25.3351 71.493 25.968 72.2127 26.7993 72.6926C27.5126 73.1037 28.292 73.2995 29.061 73.2995C29.8119 73.2995 30.5499 73.1089 31.2113 72.7548C31.599 73.6121 32.2319 74.3305 33.0632 74.8104C33.7635 75.2137 34.539 75.4199 35.3263 75.4199C35.7205 75.4199 36.1173 75.368 36.5077 75.263C37.6788 74.9491 38.6579 74.1982 39.2636 73.1478L39.912 72.0247C39.9146 72.0208 39.9159 72.0156 39.9185 72.0117L42.5187 73.5122C43.232 73.9233 44.0101 74.1191 44.7805 74.1191C46.3497 74.1191 47.88 73.3047 48.7191 71.8496C49.208 71.0014 49.3922 70.0586 49.3053 69.1508C49.6463 69.1391 49.99 69.0873 50.3285 68.9965C51.4996 68.6826 52.4787 67.9317 53.0844 66.8813C53.5746 66.0318 53.7587 65.089 53.6705 64.1799C55.184 64.1267 56.6391 63.3188 57.4509 61.9142C57.8426 61.236 58.0384 60.4981 58.0566 59.764C59.9306 60.1674 61.9303 59.3412 62.9393 57.5957C63.545 56.5452 63.7058 55.3222 63.3932 54.1512C63.3258 53.8983 63.2272 53.6583 63.1209 53.4249L68.2085 52.7129L68.7752 54.9799C68.9205 55.5725 69.447 55.9681 70.0306 55.9681C70.1149 55.9681 70.2005 55.9603 70.2861 55.9421L76.7705 54.6453C77.4734 54.5052 77.9286 53.8217 77.7872 53.1188C77.6472 52.4159 76.9676 51.9633 76.2608 52.1021L70.989 53.1565L65.1051 29.6195L76.8872 26.0842C77.5732 25.878 77.9636 25.1556 77.7574 24.4696C77.5512 23.7835 76.8275 23.3971 76.1428 23.5994L68.2137 25.9778C67.1554 23.1675 64.5487 21.217 61.5037 21.0004C62.7694 19.618 63.5475 17.7829 63.5475 15.765C63.5475 15.0491 62.9665 14.4681 62.2507 14.4681C61.5348 14.4681 60.9538 15.0491 60.9538 15.765C60.9538 18.6259 58.6272 20.9525 55.7663 20.9525C52.9054 20.9525 50.5788 18.6259 50.5788 15.765V11.1675C52.55 9.46344 55.2929 9.00694 57.7181 10.0457L61.7397 11.7693C62.1404 11.9418 62.6008 11.9003 62.964 11.6603C63.3284 11.4204 63.5475 11.0132 63.5475 10.5775V9.57756C63.5475 5.83867 60.5051 2.7962 56.7662 2.7962C56.2695 2.7962 55.7832 2.70283 55.3215 2.51737L49.7644 0.29453C49.1341 0.0429358 48.4234 0.316576 48.1225 0.918326L47.6193 1.9234C46.1876 4.7882 46.3471 8.18861 47.9851 10.9159V15.765C47.9851 17.7842 48.7645 19.6206 50.0302 21.0043C49.6204 21.0355 49.2106 21.0951 48.8021 21.195C47.487 19.6011 45.5495 18.5455 43.3669 18.3859C44.621 17.0061 45.3913 15.1788 45.3913 13.1712V6.68683C45.3913 3.11134 42.4824 0.202451 38.9069 0.202451H31.1257C30.4098 0.202451 29.8288 0.783451 29.8288 1.49933V6.68683C29.8288 7.4027 30.4098 7.9837 31.1257 7.9837H42.7976V13.1712C42.7976 16.0321 40.471 18.3587 37.61 18.3587C34.7491 18.3587 32.4225 16.0321 32.4225 13.1712V11.8743C32.4225 11.1585 31.8415 10.5775 31.1257 10.5775C30.4098 10.5775 29.8288 11.1585 29.8288 11.8743V13.1712C29.8288 15.1788 30.5991 17.0061 31.8532 18.3872C29.5292 18.5571 27.4905 19.749 26.1781 21.5179C25.4441 21.2248 24.6802 21.051 23.906 20.9914C25.1639 19.6089 25.9382 17.7777 25.9382 15.765V9.28058C25.9382 5.70509 23.0293 2.7962 19.4538 2.7962H16.86C13.2846 2.7962 10.3757 5.70509 10.3757 9.28058V15.765C10.3757 17.7725 11.146 19.5998 12.4001 20.981C8.85963 21.2391 5.97278 23.8704 5.32824 27.2916L1.67105 26.1944C0.987598 25.9908 0.263941 26.3786 0.0564415 27.0646C-0.149762 27.7507 0.240598 28.473 0.926645 28.6792L12.7088 32.2145L10.3497 41.6208C10.176 42.3159 10.5974 43.0201 11.2926 43.1939C11.3989 43.2198 11.5053 43.2328 11.609 43.2328C12.19 43.2328 12.7178 42.8398 12.8657 42.251L14.5335 35.5942L18.4513 36.7562C20.8843 37.4759 23.4741 37.5421 25.9408 36.9455L28.0287 36.4397C29.0066 36.2011 30.0207 36.3502 30.8896 36.8521L33.1734 38.1711C31.0064 39.8583 28.6097 41.1733 26.003 42.0422C24.8708 42.4222 23.9864 43.2807 23.5753 44.3948C23.1667 45.5036 23.2809 46.7227 23.893 47.742C24.9733 49.5304 26.8447 50.5199 28.7796 50.5199C29.7471 50.5199 30.7301 50.2722 31.6379 49.7547L36.413 47.0287L36.9058 47.2245C40.4243 48.6355 44.4096 48.3788 47.7179 46.5618L51.2376 48.5953C51.8562 48.9533 52.6512 48.7406 53.0091 48.122C53.3671 47.5008 53.1557 46.7084 52.5358 46.3504L48.3598 43.9383C47.941 43.6945 47.4222 43.7087 47.0163 43.9655C44.2838 45.6994 40.8665 46.0172 37.8668 44.815L36.7904 44.387C36.4234 44.2417 36.011 44.2716 35.6686 44.4661L30.3501 47.5008C28.8613 48.3502 26.999 47.8691 26.1133 46.4036C25.8357 45.9406 25.9278 45.5088 26.0082 45.2922C26.1457 44.9174 26.4453 44.6295 26.8252 44.5011C30.0998 43.4091 33.0995 41.7128 35.7412 39.4563L38.3998 37.1738C39.7214 36.039 41.5175 35.6473 43.2048 36.1272C47.1784 37.2581 51.379 37.2607 55.3552 36.1272L63.4775 33.811L67.5717 50.1879L60.8228 51.1333L57.0204 48.9442C56.4005 48.5889 55.6068 48.8015 55.2488 49.4214C54.8922 50.0427 55.1049 50.835 55.7261 51.193L59.9811 53.6467ZM16.8665 63.9633C15.938 63.4264 15.6189 62.2346 16.1545 61.306L18.0999 57.9367C18.4591 57.3142 19.1153 56.9641 19.7871 56.9641C20.1165 56.9641 20.4511 57.0471 20.7572 57.2248C21.6857 57.7604 22.0048 58.9522 21.4691 59.8807L19.5225 63.2526C18.9856 64.1812 17.7964 64.5002 16.8665 63.9633ZM24.3638 60.0545C24.723 59.432 25.3792 59.0819 26.051 59.0819C26.3804 59.0819 26.715 59.1649 27.0211 59.3425C27.9496 59.8795 28.2687 61.0713 27.733 61.9998L24.4909 67.6153C23.9553 68.5439 22.7634 68.8642 21.8336 68.3273C21.3835 68.0679 21.0619 67.649 20.9283 67.1458C20.7935 66.644 20.8622 66.12 21.1229 65.67L24.3638 60.0545ZM30.7548 69.7357C30.2192 70.6656 29.0286 70.9846 28.0975 70.4477C27.1689 69.9108 26.8499 68.7189 27.3855 67.7904L29.3308 64.4211C29.69 63.7986 30.3463 63.4485 31.018 63.4485C31.3474 63.4485 31.682 63.5315 31.9881 63.7091C32.9167 64.246 33.2357 65.4379 32.7001 66.3664L30.7548 69.7357ZM34.2978 68.7864C34.6571 68.1626 35.3133 67.8137 35.9864 67.8137C36.3158 67.8137 36.6504 67.8967 36.9551 68.0744C37.8837 68.6113 38.204 69.8031 37.6671 70.7317L37.0187 71.8548C36.4831 72.7834 35.2925 73.1037 34.3614 72.5668C33.4341 72.0312 33.1151 70.8432 33.6468 69.916L34.2978 68.7864ZM57.8582 23.5462L57.2992 25.2205L55.7663 25.9869L54.2334 25.2205L53.6744 23.5462H57.8582ZM49.9083 3.14636L54.3579 4.92697C55.1269 5.23433 55.9375 5.38995 56.7662 5.38995C58.7232 5.38995 60.3715 6.74 60.828 8.55692L58.7413 7.66337C55.7157 6.3665 52.3192 6.7374 49.6866 8.55822C49.0122 6.8217 49.077 4.85434 49.9083 3.14636ZM50.5788 23.5462H50.9406L51.9418 26.5498C52.0508 26.8753 52.2842 27.145 52.5915 27.2994L54.4694 28.2383V33.6774C53.192 34.0288 51.8886 34.2506 50.5788 34.3388V26.14C50.5788 25.2451 50.4193 24.3892 50.1405 23.589C50.287 23.576 50.4335 23.5462 50.5788 23.5462ZM32.4225 5.38995V2.7962H38.9069C40.598 2.7962 42.0402 3.88039 42.5758 5.38995H32.4225ZM38.9069 20.8357V22.7447L37.61 23.3932L36.3132 22.7447V20.8357C36.736 20.9071 37.1678 20.9525 37.61 20.9525C38.0523 20.9525 38.4841 20.9071 38.9069 20.8357ZM19.4538 25.3385L18.1569 25.9869L16.86 25.3385V23.5462H19.4538V25.3385ZM12.9694 15.765V10.5775H23.3444V15.765C23.3444 18.6259 21.0178 20.9525 18.1569 20.9525C15.296 20.9525 12.9694 18.6259 12.9694 15.765ZM16.86 5.38995H19.4538C21.1449 5.38995 22.587 6.47414 23.1227 7.9837H13.1925C13.7268 6.47414 15.1689 5.38995 16.86 5.38995ZM7.85066 28.049C8.19044 25.5149 10.3433 23.5462 12.9694 23.5462H14.2663V26.14C14.2663 26.6315 14.5438 27.0802 14.9835 27.3007L15.296 27.4563L15.0133 30.2822C14.9005 30.2018 14.7799 30.1278 14.6398 30.085L7.85066 28.049ZM17.2776 33.702L17.7834 28.6455C17.9066 28.6831 18.0285 28.7337 18.1569 28.7337C18.2853 28.7337 18.4072 28.6831 18.5304 28.6455L19.0894 34.2389L17.2776 33.702ZM21.7441 34.7058L21.0191 27.4563L21.3317 27.3007C21.77 27.0802 22.0475 26.6315 22.0475 26.14V23.5462H23.3444C23.9073 23.5462 24.4558 23.6512 24.9889 23.8393C24.7632 24.5668 24.6413 25.3385 24.6413 26.14V34.5437C23.6829 34.7162 22.7115 34.772 21.7441 34.7058ZM27.4218 33.9186L27.235 33.964V26.14C27.235 23.279 29.5616 20.9525 32.4225 20.9525H33.7194V23.5462C33.7194 24.0377 33.997 24.4864 34.4366 24.7069L34.7206 24.8483L33.7285 33.7785C33.6948 34.082 33.7687 34.3868 33.9386 34.641L34.9955 36.227L32.1891 34.6073C30.7392 33.7695 29.0455 33.5257 27.4218 33.9186ZM37.1912 34.8459L36.3573 33.5957L37.1963 26.0427C37.3325 26.0894 37.4687 26.14 37.61 26.14C37.7514 26.14 37.8876 26.0894 38.0238 26.0427L38.8965 33.8979C38.2948 34.1378 37.7242 34.4555 37.1912 34.8459ZM41.4449 33.3545L40.4995 24.8483L40.7835 24.7069C41.2231 24.4864 41.5007 24.0377 41.5007 23.5462V20.9525H42.7976C45.6585 20.9525 47.9851 23.279 47.9851 26.14V34.3388C46.6143 34.248 45.2512 34.0146 43.9168 33.6346C43.101 33.4012 42.2671 33.3195 41.4449 33.3545ZM57.0632 32.9447V28.2383L58.9397 27.2994C59.2471 27.145 59.4805 26.8753 59.5895 26.5498L60.592 23.5462H60.9538C63.0755 23.5462 64.9196 24.8379 65.7107 26.73L63.1753 27.4913C62.5113 27.691 62.1223 28.3758 62.2896 29.0488L62.8511 31.295L57.0632 32.9447Z" fill="#C84D00" stroke="#F8F2EE" stroke-width="0.4" mask="url(#path-1-inside-1_465_1396)"/>
</svg>
