<svg width="109" height="109" viewBox="0 0 109 109" fill="none" xmlns="http://www.w3.org/2000/svg">
<path fill-rule="evenodd" clip-rule="evenodd" d="M17.4319 44.0927C17.4319 58.7447 29.3097 70.6225 43.9617 70.6225C46.4533 70.6225 48.4731 68.6027 48.4731 66.1111C48.4731 63.6195 46.4533 61.5997 43.9617 61.5997C34.2928 61.5997 26.4547 53.7616 26.4547 44.0927C26.4547 34.4239 34.2928 26.5858 43.9617 26.5858C53.6305 26.5858 61.4687 34.4239 61.4687 44.0927C61.4687 46.5843 63.4885 48.6041 65.98 48.6041C68.4716 48.6041 70.4915 46.5843 70.4915 44.0927C70.4915 29.4407 58.6137 17.563 43.9617 17.563C29.3097 17.563 17.4319 29.4407 17.4319 44.0927Z" fill="#F5E5DC"/>
<path fill-rule="evenodd" clip-rule="evenodd" d="M45.1137 108.09C47.2198 106.759 47.848 103.973 46.5168 101.866C42.8106 96.0029 38.522 90.8417 34.2857 86.0783C32.671 84.2627 31.0982 82.5409 29.5654 80.8628C26.977 78.0292 24.5025 75.3203 22.1326 72.4949C14.7559 63.7009 9.69144 55.2228 9.67905 44.0482C9.7035 25.135 25.0428 9.81039 43.9615 9.81039C62.8818 9.81039 78.2219 25.1375 78.2437 44.053C78.2466 46.5445 80.2688 48.562 82.7603 48.5592C85.2519 48.5563 87.2694 46.5341 87.2665 44.0425C87.2389 20.1488 67.8617 0.787598 43.9615 0.787598C20.0613 0.787598 0.683873 20.1488 0.656251 44.0425L0.65625 44.0522C0.670272 58.3884 7.34829 68.9096 15.2197 78.2935C17.6908 81.2394 20.4138 84.2223 23.1073 87.173C24.6115 88.8209 26.1066 90.4587 27.5435 92.0744C31.6584 96.7013 35.5711 101.437 38.8898 106.687C40.221 108.793 43.0076 109.422 45.1137 108.09Z" fill="#F5E5DC"/>
<path fill-rule="evenodd" clip-rule="evenodd" d="M65.4146 99.975C63.7064 99.975 62.3127 98.5873 62.3127 96.864V74.7092C62.3127 72.2176 60.2929 70.1978 57.8013 70.1978C55.3097 70.1978 53.2899 72.2176 53.2899 74.7092V96.864C53.2899 103.56 58.7131 108.998 65.4146 108.998H88.9822C95.6838 108.998 101.107 103.56 101.107 96.864V73.451C101.107 70.9594 99.0871 68.9396 96.5956 68.9396C94.104 68.9396 92.0842 70.9594 92.0842 73.451V96.864C92.0842 98.5873 90.6904 99.975 88.9822 99.975H65.4146Z" fill="#F5E5DC"/>
<path fill-rule="evenodd" clip-rule="evenodd" d="M47.1324 83.4149C48.8136 85.2538 51.6672 85.3817 53.5061 83.7005L75.1536 63.9094C75.1536 63.9094 75.1537 63.9093 75.1536 63.9094C76.3726 62.7951 78.2343 62.795 79.4532 63.9093C79.4532 63.9093 79.4532 63.9093 79.4532 63.9093L101.101 83.7005C102.94 85.3817 105.793 85.2538 107.475 83.4149C109.156 81.576 109.028 78.7224 107.189 77.0412L85.5414 57.2501C80.8754 52.9844 73.7317 52.9844 69.0657 57.25L47.418 77.0412C45.5791 78.7224 45.4512 81.576 47.1324 83.4149Z" fill="#F5E5DC"/>
</svg>
