<svg width="17" height="12" viewBox="0 0 17 12" fill="none" xmlns="http://www.w3.org/2000/svg">
<path fill-rule="evenodd" clip-rule="evenodd" d="M8.93898 0.540758C8.66326 0.127182 8.10448 0.0154257 7.6909 0.291143L0.567634 5.03999L7.6909 9.78883C8.10448 10.0646 8.66326 9.95279 8.93898 9.53922C9.21469 9.12564 9.10294 8.56686 8.68936 8.29114L3.81263 5.03999L8.68936 1.78883C9.10294 1.51312 9.21469 0.954334 8.93898 0.540758Z" fill="#242424"/>
<path fill-rule="evenodd" clip-rule="evenodd" d="M15.0812 11.0335C11.7587 5.38529 6.24089 5.09592 3.93649 5.63814L3.70745 4.66472C6.31003 4.05235 12.3381 4.398 15.9431 10.5265C16.0831 10.7645 16.0037 11.071 15.7656 11.211C15.5276 11.351 15.2212 11.2715 15.0812 11.0335Z" fill="#242424"/>
</svg>
