<svg width="67" height="72" viewBox="0 0 67 72" fill="none" xmlns="http://www.w3.org/2000/svg">
<path fill-rule="evenodd" clip-rule="evenodd" d="M3.04734 10.3685H7.42877C7.72596 10.367 8.01055 10.2482 8.2207 10.0381C8.43085 9.82794 8.54958 9.54336 8.5511 9.24616V3.70039L3.04734 10.3685ZM8.54888 61.8701C8.29739 61.8701 8.05621 61.7702 7.87838 61.5924C7.70056 61.4145 7.60066 61.1733 7.60066 60.9219C7.60066 60.6704 7.70056 60.4292 7.87838 60.2514C8.05621 60.0735 8.29739 59.9736 8.54888 59.9736H48.3533C48.6048 59.9736 48.846 60.0735 49.0238 60.2514C49.2016 60.4292 49.3015 60.6704 49.3015 60.9219C49.3015 61.1733 49.2016 61.4145 49.0238 61.5924C48.846 61.7702 48.6048 61.8701 48.3533 61.8701H8.54888ZM33.5683 18.3973C32.5562 17.3852 31.2667 16.696 29.8629 16.4168C28.4591 16.1375 27.004 16.2809 25.6816 16.8286C24.3592 17.3764 23.229 18.3039 22.4338 19.494C21.6386 20.6841 21.2141 22.0833 21.2141 23.5146C21.2141 24.946 21.6386 26.3451 22.4338 27.5353C23.229 28.7254 24.3592 29.6529 25.6816 30.2007C27.004 30.7484 28.4591 30.8917 29.8629 30.6125C31.2667 30.3333 32.5562 29.644 33.5683 28.632C34.9254 27.2747 35.6879 25.434 35.6879 23.5146C35.6879 21.5953 34.9254 19.7546 33.5683 18.3973ZM28.4511 14.3814C30.2575 14.3814 32.0233 14.917 33.5253 15.9206C35.0273 16.9242 36.1979 18.3507 36.8892 20.0196C37.5805 21.6885 37.7614 23.5249 37.4089 25.2966C37.0565 27.0683 36.1866 28.6957 34.9093 29.973C33.632 31.2503 32.0045 32.1202 30.2328 32.4726C28.4611 32.825 26.6247 32.6441 24.9558 31.9528C23.2869 31.2615 21.8605 30.0908 20.8569 28.5888C19.8533 27.0868 19.3177 25.321 19.3177 23.5146C19.3178 21.0923 20.2801 18.7692 21.9929 17.0564C23.7057 15.3437 26.0288 14.3814 28.4511 14.3814ZM20.279 34.4342L17.3373 39.5936L19.6551 39.1029V39.1042C19.8821 39.0561 20.119 39.0931 20.3204 39.2083C20.5219 39.3235 20.674 39.5088 20.7476 39.7288L21.5047 41.9723L24.5049 36.7129C23.684 36.808 22.8811 36.9623 22.0644 36.5618C21.104 36.0906 20.7886 35.1896 20.279 34.4342ZM38.292 33.5436L42.2299 40.4501C42.3293 40.6075 42.3801 40.7907 42.3759 40.9767C42.3718 41.1628 42.3129 41.3435 42.2066 41.4963C42.1003 41.6491 41.9513 41.7672 41.7783 41.8358C41.6053 41.9044 41.4159 41.9205 41.2338 41.8821L37.6768 41.1291L36.5197 44.5542C36.4641 44.7295 36.3585 44.8848 36.2161 45.0011C36.0736 45.1174 35.9003 45.1896 35.7174 45.2089C35.5345 45.2283 35.3499 45.1939 35.1863 45.11C35.0226 45.0261 34.887 44.8963 34.7959 44.7365L30.5302 37.2548C28.8826 38.3139 28.0197 38.3139 26.3722 37.2548L22.1064 44.7361C22.0153 44.8959 21.8797 45.0256 21.716 45.1095C21.5524 45.1934 21.3678 45.2278 21.1849 45.2085C21.002 45.1891 20.8287 45.1169 20.6863 45.0006C20.5438 44.8844 20.4382 44.7291 20.3826 44.5538L19.2255 41.1286L15.6687 41.8816C15.4866 41.9201 15.2971 41.9041 15.1241 41.8355C14.951 41.7669 14.802 41.6488 14.6957 41.496C14.5894 41.3432 14.5305 41.1624 14.5264 40.9763C14.5222 40.7902 14.5731 40.607 14.6725 40.4497L18.6107 33.5435C18.0547 33.3505 17.5241 33.1045 17.1194 32.6001C16.2921 31.5694 16.6022 30.1125 16.2866 29.469C15.9749 28.8323 14.618 28.1577 14.3096 26.8416C14.0016 25.5289 14.9065 24.3271 14.9065 23.5138C14.9065 22.7005 14.001 21.4988 14.3094 20.1862C14.6179 18.8711 15.9746 18.1959 16.2866 17.5596C16.6022 16.9161 16.2921 15.4592 17.1194 14.4284C17.9439 13.4009 19.4274 13.391 19.9805 12.947C20.5359 12.5017 20.8668 11.0552 22.065 10.4681C23.2691 9.87762 24.619 10.499 25.348 10.328C26.0799 10.1562 27.0679 8.98773 28.4517 8.98773C29.8354 8.98773 30.8236 10.1564 31.5554 10.328C32.2843 10.4988 33.6344 9.87777 34.8382 10.4681C36.0365 11.0558 36.3671 12.5017 36.9229 12.947C37.4759 13.391 38.9593 13.4009 39.784 14.4284C40.6112 15.4592 40.3011 16.9161 40.6167 17.5596C40.9284 18.1959 42.2853 18.8711 42.5938 20.1862C42.9018 21.4988 41.9969 22.7007 41.9969 23.5138C41.9969 24.327 42.9024 25.529 42.5938 26.8416C42.2853 28.1567 40.9287 28.8319 40.6167 29.469C40.3011 30.1125 40.6112 31.5694 39.784 32.6001C39.3792 33.1048 38.8482 33.3505 38.292 33.5436ZM36.524 32.1547C36.2416 32.2675 35.9767 32.42 35.7373 32.6076C34.8645 33.308 34.4904 34.6285 34.0083 34.8647C33.5358 35.0964 32.2284 34.5975 31.1253 34.8568C30.0028 35.1202 29.0788 36.1451 28.4514 36.1451C27.8239 36.1451 26.8998 35.1209 25.7774 34.8568C24.6744 34.5981 23.3668 35.0964 22.8945 34.8647C22.4128 34.6285 22.0381 33.3079 21.1655 32.6076C20.2889 31.9043 18.9284 31.8327 18.5932 31.4152C18.261 31.0012 18.4813 29.656 17.9827 28.6394C17.4796 27.6135 16.2835 26.9662 16.1538 26.4128C16.0227 25.8539 16.8026 24.6857 16.8026 23.5146C16.8026 22.3434 16.0227 21.175 16.1538 20.6165C16.2835 20.0633 17.4796 19.4156 17.9827 18.3899C18.4813 17.3734 18.261 16.0283 18.5932 15.6141C18.9279 15.1972 20.2904 15.1243 21.1655 14.4217C22.0405 13.7192 22.4123 12.4006 22.8945 12.1646C23.3669 11.9329 24.6742 12.4318 25.7774 12.1725C26.8999 11.9091 27.8239 10.8842 28.4514 10.8842C29.0788 10.8842 30.0028 11.9091 31.1253 12.1725C32.2284 12.4312 33.5358 11.9329 34.0083 12.1646C34.4898 12.4006 34.8645 13.7213 35.7373 14.4217C36.6101 15.1222 37.9748 15.1972 38.3096 15.6141C38.6418 16.0281 38.4215 17.3733 38.9201 18.3899C39.423 19.4156 40.6192 20.0633 40.749 20.6165C40.8801 21.175 40.1002 22.3435 40.1002 23.5146C40.1002 24.6856 40.8801 25.8542 40.749 26.4128C40.6192 26.966 39.423 27.6137 38.9201 28.6394C38.4215 29.6559 38.6418 31.001 38.3096 31.4152C38.0689 31.715 37.0281 31.9323 36.524 32.1547ZM32.3974 36.7117L35.3968 41.9719L36.1545 39.7284C36.2282 39.5083 36.3802 39.3231 36.5817 39.2079C36.7831 39.0927 37.0199 39.0556 37.2469 39.1038V39.1024L39.5647 39.5932L36.623 34.4338C36.1134 35.189 35.798 36.0895 34.8375 36.5606C34.021 36.9614 33.2183 36.8069 32.3974 36.7117ZM24.456 24.4012C24.3566 24.3249 24.2733 24.2297 24.2109 24.121C24.1485 24.0123 24.1084 23.8923 24.0927 23.7679C24.0771 23.6436 24.0862 23.5174 24.1197 23.3966C24.1532 23.2759 24.2103 23.1629 24.2878 23.0644C24.3652 22.9659 24.4615 22.8837 24.5709 22.8227C24.6803 22.7616 24.8008 22.7229 24.9253 22.7087C25.0498 22.6946 25.1759 22.7053 25.2963 22.7402C25.4167 22.7751 25.5289 22.8336 25.6265 22.9122L27.7013 24.5438L31.1464 20.5644C31.2276 20.4705 31.3266 20.3935 31.4375 20.3379C31.5485 20.2822 31.6693 20.249 31.7932 20.24C31.917 20.2311 32.0414 20.2466 32.1592 20.2857C32.277 20.3249 32.3859 20.3868 32.4798 20.468C32.5737 20.5493 32.6507 20.6482 32.7063 20.7592C32.762 20.8701 32.7952 20.991 32.8041 21.1148C32.8131 21.2386 32.7976 21.363 32.7584 21.4808C32.7193 21.5986 32.6574 21.7076 32.5762 21.8015L28.575 26.4232C28.4984 26.5221 28.4031 26.6049 28.2944 26.6669C28.1857 26.7289 28.0659 26.7688 27.9418 26.7843C27.8176 26.7998 27.6917 26.7907 27.5711 26.7574C27.4505 26.7241 27.3377 26.6673 27.2391 26.5903L24.456 24.4012ZM56.8105 37.4794C59.5656 37.7163 62.1315 38.9781 64.0012 41.0154C65.8708 43.0528 66.9082 45.7174 66.9082 48.4826C66.9082 51.2478 65.8708 53.9124 64.0012 55.9497C62.1315 57.987 59.5656 59.2488 56.8105 59.4857V68.6509C56.8089 69.451 56.4903 70.218 55.9245 70.7838C55.3587 71.3497 54.5918 71.6683 53.7916 71.6699H3.11057C2.3105 71.6683 1.54366 71.3497 0.9779 70.784C0.412135 70.2183 0.0935226 69.4515 0.0917969 68.6514V11.3167C0.092049 11.0685 0.189381 10.8302 0.362992 10.6528L8.52112 0.768156C8.60963 0.660285 8.72099 0.573411 8.84716 0.513806C8.97332 0.454201 9.11115 0.423351 9.25069 0.423484V0.419922H53.7916C54.5917 0.421647 55.3585 0.74025 55.9243 1.30601C56.49 1.87176 56.8086 2.6386 56.8104 3.4387L56.8105 37.4794ZM48.0533 40.6741C46.0842 42.6377 44.9316 45.274 44.8272 48.0529H8.54888C8.29739 48.0529 8.05621 48.1528 7.87838 48.3306C7.70056 48.5085 7.60066 48.7497 7.60066 49.0011C7.60066 49.2526 7.70056 49.4938 7.87838 49.6716C8.05621 49.8495 8.29739 49.9494 8.54888 49.9494H44.9161C45.1062 51.3817 45.5766 52.7627 46.3004 54.0133H8.54888C8.29739 54.0133 8.05621 54.1132 7.87838 54.291C7.70056 54.4688 7.60066 54.71 7.60066 54.9615C7.60066 55.213 7.70056 55.4542 7.87838 55.632C8.05621 55.8098 8.29739 55.9097 8.54888 55.9097H47.6887C49.5582 57.9727 52.1399 59.2507 54.9139 59.4862V68.6513C54.9123 68.9484 54.7936 69.233 54.5834 69.443C54.3733 69.6531 54.0887 69.7718 53.7916 69.7733H3.11057C2.81343 69.7718 2.52889 69.6531 2.31874 69.443C2.1086 69.233 1.98983 68.9484 1.98823 68.6513V12.2652H7.42877C8.22888 12.2636 8.99576 11.9451 9.56153 11.3793C10.1273 10.8136 10.4459 10.0467 10.4475 9.24661V2.31651H53.7913C54.0885 2.31803 54.3731 2.43676 54.5832 2.64691C54.7934 2.85706 54.9121 3.14165 54.9136 3.43884V37.48C52.3209 37.6997 49.8904 38.8314 48.0533 40.6741ZM49.3943 42.0148C48.115 43.2941 47.2438 44.924 46.8908 46.6984C46.5379 48.4729 46.719 50.3121 47.4114 51.9836C48.1037 53.6551 49.2762 55.0837 50.7805 56.0888C52.2848 57.094 54.0533 57.6305 55.8625 57.6305C57.6717 57.6305 59.4403 57.094 60.9446 56.0888C62.4489 55.0837 63.6213 53.6551 64.3137 51.9836C65.006 50.3121 65.1872 48.4729 64.8342 46.6984C64.4813 44.924 63.61 43.2941 62.3308 42.0148C60.6152 40.2993 58.2886 39.3356 55.8625 39.3356C53.4365 39.3356 51.1098 40.2993 49.3943 42.0148ZM49.9479 49.45L54.2979 52.8705C54.3965 52.9475 54.5093 53.0042 54.6299 53.0375C54.7505 53.0708 54.8765 53.0799 55.0006 53.0644C55.1247 53.0489 55.2446 53.009 55.3532 52.947C55.4619 52.8851 55.5573 52.8022 55.6338 52.7033L61.9064 45.4581C62.0704 45.2685 62.1524 45.0215 62.1343 44.7715C62.1162 44.5214 61.9996 44.2888 61.81 44.1247C61.6204 43.9607 61.3734 43.8787 61.1233 43.8968C60.8733 43.9149 60.6406 44.0316 60.4766 44.2212L54.7597 50.8243L51.1185 47.961C51.0209 47.8824 50.9087 47.8239 50.7884 47.789C50.668 47.7541 50.5419 47.7434 50.4174 47.7575C50.2929 47.7717 50.1724 47.8104 50.063 47.8715C49.9535 47.9326 49.8573 48.0147 49.7798 48.1133C49.7024 48.2118 49.6453 48.3247 49.6118 48.4455C49.5783 48.5662 49.5691 48.6924 49.5848 48.8168C49.6004 48.9411 49.6406 49.0611 49.703 49.1698C49.7653 49.2785 49.8485 49.3738 49.9479 49.45Z" fill="#C84D00"/>
</svg>
