<svg width="242" height="220" viewBox="0 0 242 220" fill="none" xmlns="http://www.w3.org/2000/svg">
<path fill-rule="evenodd" clip-rule="evenodd" d="M240.49 0L241.729 1.56954L126.927 92.237C133.325 97.2177 142.784 105.011 151.602 113.17C160.859 121.736 169.538 130.818 173.133 137.501L173.523 138.225L172.887 138.747C158.334 150.692 132.269 169.053 101.311 185.372C70.362 201.687 34.4497 216.001 0.219419 219.779L0 217.791C33.8757 214.052 69.533 199.863 100.378 183.603C130.759 167.587 156.4 149.601 170.971 137.731C167.329 131.442 159.18 122.907 150.243 114.638C141 106.085 131.039 97.9289 124.694 93.0365L123.679 92.254L240.49 0Z" fill="#C84D00" fill-opacity="0.07"/>
</svg>
