<svg width="17" height="12" viewBox="0 0 17 12" fill="none" xmlns="http://www.w3.org/2000/svg">
<path fill-rule="evenodd" clip-rule="evenodd" d="M8.06102 0.540758C8.33674 0.127182 8.89552 0.0154257 9.3091 0.291143L16.4324 5.03999L9.3091 9.78883C8.89552 10.0646 8.33674 9.95279 8.06102 9.53922C7.78531 9.12564 7.89706 8.56686 8.31064 8.29114L13.1874 5.03999L8.31064 1.78883C7.89706 1.51312 7.78531 0.954334 8.06102 0.540758Z" fill="#242424"/>
<path fill-rule="evenodd" clip-rule="evenodd" d="M1.91884 11.0335C5.24133 5.38529 10.7591 5.09592 13.0635 5.63814L13.2926 4.66472C10.69 4.05235 4.66191 4.398 1.05691 10.5265C0.916896 10.7645 0.996346 11.071 1.23436 11.211C1.47238 11.351 1.77883 11.2715 1.91884 11.0335Z" fill="#242424"/>
</svg>
