<svg width="242" height="221" viewBox="0 0 242 221" fill="none" xmlns="http://www.w3.org/2000/svg">
<path fill-rule="evenodd" clip-rule="evenodd" d="M240.49 0.392578L241.729 1.96212L126.927 92.6296C133.325 97.6103 142.784 105.403 151.602 113.562C160.859 122.128 169.538 131.211 173.133 137.893L173.523 138.618L172.887 139.14C158.334 151.084 132.269 169.445 101.311 185.765C70.362 202.079 34.4497 216.393 0.219419 220.171L0 218.183C33.8757 214.444 69.533 200.255 100.378 183.995C130.759 167.98 156.4 149.994 170.971 138.123C167.329 131.834 159.18 123.299 150.243 115.03C141 106.477 131.039 98.3215 124.694 93.429L123.679 92.6466L240.49 0.392578Z" fill="#C84D00" fill-opacity="0.1"/>
</svg>
